<?xml version="1.0" encoding="UTF-8" standalone="no"?>
<!DOCTYPE svg PUBLIC "-//W3C//DTD SVG 1.1//EN" "http://www.w3.org/Graphics/SVG/1.1/DTD/svg11.dtd">
<!-- Gegenereerd door Microsoft Visio, SVG Export inwendige_moment.svg Pagina-1 -->
<svg xmlns="http://www.w3.org/2000/svg" xmlns:xlink="http://www.w3.org/1999/xlink" xmlns:ev="http://www.w3.org/2001/xml-events"
		xmlns:v="http://schemas.microsoft.com/visio/2003/SVGExtensions/" width="4.27247in" height="1.57102in"
		viewBox="0 0 307.618 113.114" xml:space="preserve" color-interpolation-filters="sRGB" class="st12">
	<v:documentProperties v:langID="1043" v:metric="true" v:viewMarkup="false"/>

	<style type="text/css">
	<![CDATA[
		.st1 {marker-end:url(#mrkr5-6);stroke:#31859b;stroke-linecap:round;stroke-linejoin:round;stroke-width:1.5}
		.st2 {fill:#31859b;fill-opacity:1;stroke:#31859b;stroke-opacity:1;stroke-width:0.51020408163265}
		.st3 {stroke:#000000;stroke-linecap:round;stroke-linejoin:round;stroke-width:2}
		.st4 {marker-end:url(#mrkr5-17);stroke:#000000;stroke-linecap:round;stroke-linejoin:round;stroke-width:0.75}
		.st5 {fill:#000000;fill-opacity:1;stroke:#000000;stroke-opacity:1;stroke-width:0.22935779816514}
		.st6 {fill:none;stroke:none;stroke-linecap:round;stroke-linejoin:round;stroke-width:0.75}
		.st7 {fill:#000000;font-family:Times New Roman;font-size:1.00001em;font-style:italic}
		.st8 {stroke:#000000;stroke-dasharray:0.75,1.5;stroke-linecap:round;stroke-linejoin:round;stroke-width:0.75}
		.st9 {baseline-shift:-32.4941%;font-size:0.649882em;font-style:normal}
		.st10 {marker-start:url(#mrkr39-88);stroke:#31859b;stroke-linecap:round;stroke-linejoin:round;stroke-width:2}
		.st11 {fill:#31859b;fill-opacity:1;stroke:#31859b;stroke-opacity:1;stroke-width:0.44247787610619}
		.st12 {fill:none;fill-rule:evenodd;font-size:12px;overflow:visible;stroke-linecap:square;stroke-miterlimit:3}
	]]>
	</style>

	<defs id="Markers">
		<g id="lend5">
			<path d="M 2 1 L 0 0 L 1.98117 -0.993387 C 1.67173 -0.364515 1.67301 0.372641 1.98465 1.00043 " style="stroke:none"/>
		</g>
		<marker id="mrkr5-6" class="st2" v:arrowType="5" v:arrowSize="0" v:setback="3.19" refX="-3.19" orient="auto"
				markerUnits="strokeWidth" overflow="visible">
			<use xlink:href="#lend5" transform="scale(-1.96,-1.96) "/>
		</marker>
		<marker id="mrkr5-17" class="st5" v:arrowType="5" v:arrowSize="2" v:setback="7.63" refX="-7.63" orient="auto"
				markerUnits="strokeWidth" overflow="visible">
			<use xlink:href="#lend5" transform="scale(-4.36,-4.36) "/>
		</marker>
		<g id="lend39">
			<path d="M 0 0 L 2 -1 L 2 1 L 0 0 M 2 0 L 4 -1 L 4 1 L 2 0 " style="stroke:none"/>
		</g>
		<marker id="mrkr39-88" class="st11" v:arrowType="39" v:arrowSize="2" v:setback="8.86" refX="8.86" orient="auto"
				markerUnits="strokeWidth" overflow="visible">
			<use xlink:href="#lend39" transform="scale(2.26) "/>
		</marker>
	</defs>
	<g v:mID="0" v:index="1" v:groupContext="foregroundPage">
		<title>Pagina-1</title>
		<v:pageProperties v:drawingScale="0.0393701" v:pageScale="0.0393701" v:drawingUnits="24" v:shadowOffsetX="8.50394"
				v:shadowOffsetY="-8.50394"/>
		<g id="shape473-1" v:mID="473" v:groupContext="shape" transform="translate(163.971,21.4711) rotate(90)">
			<title>Blad.473</title>
			<path d="M0 113.11 C-4.73 103.65 3.02 96.3 18.51 103.07 C20.77 104.06 23.2 105.35 25.69 108.71 L25.88 109.01"
					class="st1"/>
		</g>
		<g id="shape367-7" v:mID="367" v:groupContext="shape" transform="translate(274.631,-54.8467) rotate(36.8699)">
			<title>Ligger, 2 pt.367</title>
			<path d="M0 113.11 L53.15 113.11" class="st3"/>
		</g>
		<g id="group384-10" transform="translate(206.762,-27.8632)" v:mID="384" v:groupContext="group">
			<title>z-as.384</title>
			<g id="shape385-11" v:mID="385" v:groupContext="shape" transform="translate(113.114,84.7673) rotate(90)">
				<title>Blad.385</title>
				<path d="M0 113.11 L22.62 113.11" class="st4"/>
			</g>
			<g id="shape386-18" v:mID="386" v:groupContext="shape">
				<title>Blad.386</title>
				<desc>z</desc>
				<v:textBlock v:margins="rect(4,4,4,4)" v:tabSpace="42.5197"/>
				<v:textRect cx="7.08661" cy="106.027" width="14.18" height="14.1732"/>
				<rect x="0" y="98.9405" width="14.1732" height="14.1732" class="st6"/>
				<text x="4.75" y="109.63" class="st7" v:langID="1043"><v:paragraph v:horizAlign="1"/><v:tabList/>z</text>			</g>
		</g>
		<g id="shape387-21" v:mID="387" v:groupContext="shape" transform="translate(164.243,-34.9498)">
			<title>Blad.387</title>
			<desc>y</desc>
			<v:textBlock v:margins="rect(4,4,4,4)" v:tabSpace="42.5197"/>
			<v:textRect cx="7.08661" cy="106.027" width="14.18" height="14.1732"/>
			<rect x="0" y="98.9405" width="14.1732" height="14.1732" class="st6"/>
			<text x="4.42" y="109.63" class="st7" v:langID="1043"><v:paragraph v:horizAlign="1"/><v:tabList/>y</text>		</g>
		<g id="shape388-24" v:mID="388" v:groupContext="shape" transform="translate(345.497,-1.69705) rotate(36.8699)">
			<title>Blad.388</title>
			<path d="M0 113.11 L22.62 113.11" class="st4"/>
		</g>
		<g id="shape389-29" v:mID="389" v:groupContext="shape" transform="translate(291.802,-12.2726)">
			<title>Blad.389</title>
			<desc>x</desc>
			<v:textBlock v:margins="rect(4,4,4,4)" v:tabSpace="42.5197"/>
			<v:textRect cx="7.08661" cy="106.027" width="14.18" height="14.1732"/>
			<rect x="0" y="98.9405" width="14.1732" height="14.1732" class="st6"/>
			<text x="4.42" y="109.63" class="st7" v:langID="1043"><v:paragraph v:horizAlign="1"/><v:tabList/>x</text>		</g>
		<g id="shape391-32" v:mID="391" v:groupContext="shape" transform="translate(239.157,145.912) rotate(153.435)">
			<title>Blad.391</title>
			<path d="M0 113.11 L22.62 113.11" class="st4"/>
		</g>
		<g id="shape322-37" v:mID="322" v:groupContext="shape" transform="translate(118.725,-54.8467) rotate(36.8699)">
			<title>Ligger, 2 pt.322</title>
			<path d="M0 113.11 L53.15 113.11" class="st3"/>
		</g>
		<g id="shape334-40" v:mID="334" v:groupContext="shape" transform="translate(161.245,-22.9569) rotate(36.8699)">
			<title>Blad.334</title>
			<path d="M0 113.11 L21.26 113.11" class="st8"/>
		</g>
		<g id="shape335-43" v:mID="335" v:groupContext="shape" transform="translate(143.963,168.706) rotate(153.435)">
			<title>Blad.335</title>
			<path d="M0 113.11 L21.26 113.11" class="st8"/>
		</g>
		<g id="shape336-46" v:mID="336" v:groupContext="shape" transform="translate(-19.7373,67.5341) rotate(-90)">
			<title>Blad.336</title>
			<path d="M0 113.11 L21.26 113.11" class="st8"/>
		</g>
		<g id="group339-49" transform="translate(50.8568,-27.8632)" v:mID="339" v:groupContext="group">
			<title>z-as.339</title>
			<g id="shape340-50" v:mID="340" v:groupContext="shape" transform="translate(113.114,84.7673) rotate(90)">
				<title>Blad.340</title>
				<path d="M0 113.11 L22.62 113.11" class="st4"/>
			</g>
			<g id="shape341-55" v:mID="341" v:groupContext="shape">
				<title>Blad.341</title>
				<desc>z</desc>
				<v:textBlock v:margins="rect(4,4,4,4)" v:tabSpace="42.5197"/>
				<v:textRect cx="7.08661" cy="106.027" width="14.18" height="14.1732"/>
				<rect x="0" y="98.9405" width="14.1732" height="14.1732" class="st6"/>
				<text x="4.75" y="109.63" class="st7" v:langID="1043"><v:paragraph v:horizAlign="1"/><v:tabList/>z</text>			</g>
		</g>
		<g id="shape342-58" v:mID="342" v:groupContext="shape" transform="translate(8.33716,-34.9498)">
			<title>Blad.342</title>
			<desc>y</desc>
			<v:textBlock v:margins="rect(4,4,4,4)" v:tabSpace="42.5197"/>
			<v:textRect cx="7.08661" cy="106.027" width="14.18" height="14.1732"/>
			<rect x="0" y="98.9405" width="14.1732" height="14.1732" class="st6"/>
			<text x="4.42" y="109.63" class="st7" v:langID="1043"><v:paragraph v:horizAlign="1"/><v:tabList/>y</text>		</g>
		<g id="shape343-61" v:mID="343" v:groupContext="shape" transform="translate(189.591,-1.69705) rotate(36.8699)">
			<title>Blad.343</title>
			<path d="M0 113.11 L22.62 113.11" class="st4"/>
		</g>
		<g id="shape344-66" v:mID="344" v:groupContext="shape" transform="translate(135.896,-12.2726)">
			<title>Blad.344</title>
			<desc>x</desc>
			<v:textBlock v:margins="rect(4,4,4,4)" v:tabSpace="42.5197"/>
			<v:textRect cx="7.08661" cy="106.027" width="14.18" height="14.1732"/>
			<rect x="0" y="98.9405" width="14.1732" height="14.1732" class="st6"/>
			<text x="4.42" y="109.63" class="st7" v:langID="1043"><v:paragraph v:horizAlign="1"/><v:tabList/>x</text>		</g>
		<g id="shape345-69" v:mID="345" v:groupContext="shape" transform="translate(193.862,53.3609) rotate(90)">
			<title>Blad.345</title>
			<path d="M0 100.49 C5.03 110.54 20.06 117.75 28.19 109.8 C29.21 108.8 30.12 107.57 29.94 105.38 L29.83 105.04"
					class="st1"/>
		</g>
		<g id="shape346-74" v:mID="346" v:groupContext="shape" transform="translate(83.2518,145.912) rotate(153.435)">
			<title>Blad.346</title>
			<path d="M0 113.11 L22.62 113.11" class="st4"/>
		</g>
		<g id="shape349-79" v:mID="349" v:groupContext="shape" transform="translate(79.2033,-13.6899)">
			<title>Blad.349</title>
			<desc>Mt</desc>
			<v:textBlock v:margins="rect(4,4,4,4)" v:tabSpace="42.5197"/>
			<v:textRect cx="14.1732" cy="106.027" width="28.35" height="14.1732"/>
			<rect x="0" y="98.9405" width="28.3465" height="14.1732" class="st6"/>
			<text x="8.09" y="109.63" class="st7" v:langID="1043"><v:paragraph v:horizAlign="1"/><v:tabList/>M<tspan dy="-0.279em"
						class="st9" v:baseFontSize="12">t</tspan></text>		</g>
		<g id="shape461-83" v:mID="461" v:groupContext="shape" transform="translate(204.091,175.033) rotate(-143.13)">
			<title>Wringend moment.461</title>
			<path d="M17.72 113.11 L18.08 113.11 L28.35 113.11" class="st10"/>
		</g>
		<g id="shape466-89" v:mID="466" v:groupContext="shape" transform="translate(251.953,-71.8546) rotate(36.8699)">
			<title>Wringend moment.466</title>
			<path d="M17.72 113.11 L18.08 113.11 L28.35 113.11" class="st10"/>
		</g>
		<g id="shape468-94" v:mID="468" v:groupContext="shape" transform="translate(101.717,-67.6026) rotate(36.8699)">
			<title>Blad.468</title>
			<path d="M0 113.11 L21.26 113.11" class="st8"/>
		</g>
		<g id="shape469-97" v:mID="469" v:groupContext="shape" transform="translate(120.458,127.309) rotate(153.435)">
			<title>Blad.469</title>
			<path d="M0 113.11 L21.26 113.11" class="st8"/>
		</g>
		<g id="shape470-100" v:mID="470" v:groupContext="shape" transform="translate(-62.2569,35.6443) rotate(-90)">
			<title>Blad.470</title>
			<path d="M0 113.11 L21.26 113.11" class="st8"/>
		</g>
		<g id="shape475-103" v:mID="475" v:groupContext="shape" transform="translate(28.5718,-56.2097)">
			<title>Blad.475</title>
			<desc>Mt</desc>
			<v:textBlock v:margins="rect(4,4,4,4)" v:tabSpace="42.5197"/>
			<v:textRect cx="14.1732" cy="106.027" width="28.35" height="14.1732"/>
			<rect x="0" y="98.9405" width="28.3465" height="14.1732" class="st6"/>
			<text x="8.09" y="109.63" class="st7" v:langID="1043"><v:paragraph v:horizAlign="1"/><v:tabList/>M<tspan dy="-0.279em"
						class="st9" v:baseFontSize="12">t</tspan></text>		</g>
		<g id="shape476-107" v:mID="476" v:groupContext="shape" transform="translate(114.12,130.478) rotate(153.435)">
			<title>Blad.476</title>
			<path d="M0 113.11 L14.17 113.11" class="st8"/>
		</g>
		<g id="shape481-110" v:mID="481" v:groupContext="shape" transform="translate(263.455,-40.0521)">
			<title>Blad.481</title>
			<desc>Mt</desc>
			<v:textBlock v:margins="rect(4,4,4,4)" v:tabSpace="42.5197"/>
			<v:textRect cx="14.1732" cy="106.027" width="28.35" height="14.1732"/>
			<rect x="0" y="98.9405" width="28.3465" height="14.1732" class="st6"/>
			<text x="8.09" y="109.63" class="st7" v:langID="1043"><v:paragraph v:horizAlign="1"/><v:tabList/>M<tspan dy="-0.279em"
						class="st9" v:baseFontSize="12">t</tspan></text>		</g>
		<g id="shape482-114" v:mID="482" v:groupContext="shape" transform="translate(192.589,-89.6584)">
			<title>Blad.482</title>
			<desc>Mt</desc>
			<v:textBlock v:margins="rect(4,4,4,4)" v:tabSpace="42.5197"/>
			<v:textRect cx="14.1732" cy="106.027" width="28.35" height="14.1732"/>
			<rect x="0" y="98.9405" width="28.3465" height="14.1732" class="st6"/>
			<text x="8.09" y="109.63" class="st7" v:langID="1043"><v:paragraph v:horizAlign="1"/><v:tabList/>M<tspan dy="-0.279em"
						class="st9" v:baseFontSize="12">t</tspan></text>		</g>
	</g>
</svg>
