<?xml version="1.0" encoding="UTF-8" standalone="no"?>
<!DOCTYPE svg PUBLIC "-//W3C//DTD SVG 1.1//EN" "http://www.w3.org/Graphics/SVG/1.1/DTD/svg11.dtd">
<!-- Gegenereerd door Microsoft Visio, SVG Export moment_curved.svg Pagina-1 -->
<svg xmlns="http://www.w3.org/2000/svg" xmlns:xlink="http://www.w3.org/1999/xlink" xmlns:ev="http://www.w3.org/2001/xml-events"
		xmlns:v="http://schemas.microsoft.com/visio/2003/SVGExtensions/" width="5.32275in" height="2.88235in"
		viewBox="0 0 383.238 207.529" xml:space="preserve" color-interpolation-filters="sRGB" class="st17">
	<v:documentProperties v:langID="1043" v:metric="true" v:viewMarkup="false"/>

	<style type="text/css">
	<![CDATA[
		.st1 {fill:#000000;stroke:#000000;stroke-linecap:round;stroke-linejoin:round;stroke-width:0.75}
		.st2 {stroke:#000000;stroke-linecap:round;stroke-linejoin:round;stroke-width:1.2}
		.st3 {stroke:#000000;stroke-linecap:round;stroke-linejoin:round;stroke-width:0.75}
		.st4 {stroke:#000000;stroke-linecap:round;stroke-linejoin:round;stroke-width:2}
		.st5 {marker-end:url(#mrkr5-54);stroke:#800000;stroke-linecap:round;stroke-linejoin:round;stroke-width:2}
		.st6 {fill:#800000;fill-opacity:1;stroke:#800000;stroke-opacity:1;stroke-width:0.44247787610619}
		.st7 {marker-end:url(#mrkr5-62);stroke:#000000;stroke-linecap:round;stroke-linejoin:round;stroke-width:0.75}
		.st8 {fill:#000000;fill-opacity:1;stroke:#000000;stroke-opacity:1;stroke-width:0.22935779816514}
		.st9 {fill:none;stroke:none;stroke-linecap:round;stroke-linejoin:round;stroke-width:0.75}
		.st10 {fill:#000000;font-family:Times New Roman;font-size:1.00001em;font-style:italic}
		.st11 {stroke:#000000;stroke-dasharray:0.75,1.5;stroke-linecap:round;stroke-linejoin:round;stroke-width:0.75}
		.st12 {marker-start:url(#mrkr5-217);stroke:#800000;stroke-linecap:round;stroke-linejoin:round;stroke-width:1.5}
		.st13 {fill:#800000;fill-opacity:1;stroke:#800000;stroke-opacity:1;stroke-width:0.51020408163265}
		.st14 {marker-end:url(#mrkr5-223);stroke:#800000;stroke-linecap:round;stroke-linejoin:round;stroke-width:1.5}
		.st15 {baseline-shift:-32.4941%;font-size:0.649882em;font-style:normal}
		.st16 {baseline-shift:-32.4941%;font-size:0.649882em}
		.st17 {fill:none;fill-rule:evenodd;font-size:12px;overflow:visible;stroke-linecap:square;stroke-miterlimit:3}
	]]>
	</style>

	<defs id="Markers">
		<g id="lend5">
			<path d="M 2 1 L 0 0 L 1.98117 -0.993387 C 1.67173 -0.364515 1.67301 0.372641 1.98465 1.00043 " style="stroke:none"/>
		</g>
		<marker id="mrkr5-54" class="st6" v:arrowType="5" v:arrowSize="2" v:setback="3.775" refX="-3.775" orient="auto"
				markerUnits="strokeWidth" overflow="visible">
			<use xlink:href="#lend5" transform="scale(-2.26,-2.26) "/>
		</marker>
		<marker id="mrkr5-62" class="st8" v:arrowType="5" v:arrowSize="2" v:setback="7.63" refX="-7.63" orient="auto"
				markerUnits="strokeWidth" overflow="visible">
			<use xlink:href="#lend5" transform="scale(-4.36,-4.36) "/>
		</marker>
		<marker id="mrkr5-217" class="st13" v:arrowType="5" v:arrowSize="0" v:setback="3.19" refX="3.19" orient="auto"
				markerUnits="strokeWidth" overflow="visible">
			<use xlink:href="#lend5" transform="scale(1.96) "/>
		</marker>
		<marker id="mrkr5-223" class="st13" v:arrowType="5" v:arrowSize="0" v:setback="3.19" refX="-3.19" orient="auto"
				markerUnits="strokeWidth" overflow="visible">
			<use xlink:href="#lend5" transform="scale(-1.96,-1.96) "/>
		</marker>
	</defs>
	<g v:mID="0" v:index="1" v:groupContext="foregroundPage">
		<title>Pagina-1</title>
		<v:pageProperties v:drawingScale="0.0393701" v:pageScale="0.0393701" v:drawingUnits="24" v:shadowOffsetX="8.50394"
				v:shadowOffsetY="-8.50394"/>
		<g id="shape52-1" v:mID="52" v:groupContext="shape" transform="translate(356.832,-68.9655)">
			<title>Knoop</title>
			<ellipse cx="2.12598" cy="205.403" rx="2.12598" ry="2.12598" class="st1"/>
		</g>
		<g id="group1-3" transform="translate(0.375,-56.9182)" v:mID="1" v:groupContext="group">
			<title>Inklemming</title>
			<g id="shape2-4" v:mID="2" v:groupContext="shape" transform="translate(218.868,179.183) rotate(90)">
				<title>Blad.2</title>
				<path d="M0 207.53 L28.35 207.53" class="st2"/>
			</g>
			<g id="shape3-7" v:mID="3" v:groupContext="shape" transform="translate(155.249,32.4375) rotate(45)">
				<title>Blad.3</title>
				<path d="M0 207.53 L4.01 207.53" class="st3"/>
			</g>
			<g id="shape4-10" v:mID="4" v:groupContext="shape" transform="translate(152.415,32.4375) rotate(45)">
				<title>Blad.4</title>
				<path d="M0 207.53 L8.02 207.53" class="st3"/>
			</g>
			<g id="shape5-13" v:mID="5" v:groupContext="shape" transform="translate(149.58,32.4375) rotate(45)">
				<title>Blad.5</title>
				<path d="M0 207.53 L12.03 207.53" class="st3"/>
			</g>
			<g id="shape6-16" v:mID="6" v:groupContext="shape" transform="translate(146.745,32.4375) rotate(45)">
				<title>Blad.6</title>
				<path d="M0 207.53 L16.04 207.53" class="st3"/>
			</g>
			<g id="shape7-19" v:mID="7" v:groupContext="shape" transform="translate(146.745,35.2722) rotate(45)">
				<title>Blad.7</title>
				<path d="M0 207.53 L16.04 207.53" class="st3"/>
			</g>
			<g id="shape8-22" v:mID="8" v:groupContext="shape" transform="translate(146.745,38.1068) rotate(45)">
				<title>Blad.8</title>
				<path d="M0 207.53 L16.04 207.53" class="st3"/>
			</g>
			<g id="shape9-25" v:mID="9" v:groupContext="shape" transform="translate(146.745,40.9414) rotate(45)">
				<title>Blad.9</title>
				<path d="M0 207.53 L16.04 207.53" class="st3"/>
			</g>
			<g id="shape10-28" v:mID="10" v:groupContext="shape" transform="translate(146.745,43.7761) rotate(45)">
				<title>Blad.10</title>
				<path d="M0 207.53 L16.04 207.53" class="st3"/>
			</g>
			<g id="shape11-31" v:mID="11" v:groupContext="shape" transform="translate(146.745,46.6107) rotate(45)">
				<title>Blad.11</title>
				<path d="M0 207.53 L16.04 207.53" class="st3"/>
			</g>
			<g id="shape12-34" v:mID="12" v:groupContext="shape" transform="translate(146.745,49.4454) rotate(45)">
				<title>Blad.12</title>
				<path d="M0 207.53 L16.04 207.53" class="st3"/>
			</g>
			<g id="shape13-37" v:mID="13" v:groupContext="shape" transform="translate(146.745,52.28) rotate(45)">
				<title>Blad.13</title>
				<path d="M0 207.53 L12.03 207.53" class="st3"/>
			</g>
			<g id="shape14-40" v:mID="14" v:groupContext="shape" transform="translate(146.745,55.1147) rotate(45)">
				<title>Blad.14</title>
				<path d="M0 207.53 L8.02 207.53" class="st3"/>
			</g>
			<g id="shape15-43" v:mID="15" v:groupContext="shape" transform="translate(146.745,57.9493) rotate(45)">
				<title>Blad.15</title>
				<path d="M0 207.53 L4.01 207.53" class="st3"/>
			</g>
		</g>
		<g id="shape16-46" v:mID="16" v:groupContext="shape" transform="translate(11.7136,-71.0915)">
			<title>Ligger, 2 pt</title>
			<path d="M0 207.53 L42.52 207.53" class="st4"/>
		</g>
		<g id="shape17-49" v:mID="17" v:groupContext="shape" transform="translate(261.763,150.611) rotate(90) scale(-1,1)">
			<title>Moment</title>
			<path d="M-0 207.53 A14.1732 14.1732 0 0 1 14.17 193.36 A14.1732 14.1732 0 0 1 26.14 199.93 L26.24 200.28" class="st5"/>
		</g>
		<g id="group18-55" transform="translate(75.4931,-56.9182)" v:mID="18" v:groupContext="group">
			<title>x-as</title>
			<g id="shape19-56" v:mID="19" v:groupContext="shape" transform="translate(-2.36735E-12,-14.1732)">
				<title>Blad.19</title>
				<path d="M0 207.53 L22.62 207.53" class="st7"/>
			</g>
			<g id="shape20-63" v:mID="20" v:groupContext="shape" transform="translate(14.1732,2.84217E-14)">
				<title>Blad.20</title>
				<desc>x</desc>
				<v:textBlock v:margins="rect(4,4,4,4)" v:tabSpace="42.5197"/>
				<v:textRect cx="7.08661" cy="200.443" width="14.18" height="14.1732"/>
				<rect x="0" y="193.356" width="14.1732" height="14.1732" class="st9"/>
				<text x="4.42" y="204.04" class="st10" v:langID="1043"><v:paragraph v:horizAlign="1"/><v:tabList/>x</text>			</g>
		</g>
		<g id="group21-66" transform="translate(11.7136,-21.4852)" v:mID="21" v:groupContext="group">
			<title>z-as</title>
			<g id="shape22-67" v:mID="22" v:groupContext="shape" transform="translate(207.529,179.183) rotate(90)">
				<title>Blad.22</title>
				<path d="M0 207.53 L22.62 207.53" class="st7"/>
			</g>
			<g id="shape23-72" v:mID="23" v:groupContext="shape">
				<title>Blad.23</title>
				<desc>z</desc>
				<v:textBlock v:margins="rect(4,4,4,4)" v:tabSpace="42.5197"/>
				<v:textRect cx="7.08661" cy="200.443" width="14.18" height="14.1732"/>
				<rect x="0" y="193.356" width="14.1732" height="14.1732" class="st9"/>
				<text x="4.75" y="204.04" class="st10" v:langID="1043"><v:paragraph v:horizAlign="1"/><v:tabList/>z</text>			</g>
		</g>
		<g id="group27-75" transform="translate(156.281,-56.9182)" v:mID="27" v:groupContext="group">
			<title>Inklemming.27</title>
			<g id="shape28-76" v:mID="28" v:groupContext="shape" transform="translate(218.868,179.183) rotate(90)">
				<title>Blad.28</title>
				<path d="M0 207.53 L28.35 207.53" class="st2"/>
			</g>
			<g id="shape29-79" v:mID="29" v:groupContext="shape" transform="translate(155.249,32.4375) rotate(45)">
				<title>Blad.29</title>
				<path d="M0 207.53 L4.01 207.53" class="st3"/>
			</g>
			<g id="shape30-82" v:mID="30" v:groupContext="shape" transform="translate(152.415,32.4375) rotate(45)">
				<title>Blad.30</title>
				<path d="M0 207.53 L8.02 207.53" class="st3"/>
			</g>
			<g id="shape31-85" v:mID="31" v:groupContext="shape" transform="translate(149.58,32.4375) rotate(45)">
				<title>Blad.31</title>
				<path d="M0 207.53 L12.03 207.53" class="st3"/>
			</g>
			<g id="shape32-88" v:mID="32" v:groupContext="shape" transform="translate(146.745,32.4375) rotate(45)">
				<title>Blad.32</title>
				<path d="M0 207.53 L16.04 207.53" class="st3"/>
			</g>
			<g id="shape33-91" v:mID="33" v:groupContext="shape" transform="translate(146.745,35.2722) rotate(45)">
				<title>Blad.33</title>
				<path d="M0 207.53 L16.04 207.53" class="st3"/>
			</g>
			<g id="shape34-94" v:mID="34" v:groupContext="shape" transform="translate(146.745,38.1068) rotate(45)">
				<title>Blad.34</title>
				<path d="M0 207.53 L16.04 207.53" class="st3"/>
			</g>
			<g id="shape35-97" v:mID="35" v:groupContext="shape" transform="translate(146.745,40.9414) rotate(45)">
				<title>Blad.35</title>
				<path d="M0 207.53 L16.04 207.53" class="st3"/>
			</g>
			<g id="shape36-100" v:mID="36" v:groupContext="shape" transform="translate(146.745,43.7761) rotate(45)">
				<title>Blad.36</title>
				<path d="M0 207.53 L16.04 207.53" class="st3"/>
			</g>
			<g id="shape37-103" v:mID="37" v:groupContext="shape" transform="translate(146.745,46.6107) rotate(45)">
				<title>Blad.37</title>
				<path d="M0 207.53 L16.04 207.53" class="st3"/>
			</g>
			<g id="shape38-106" v:mID="38" v:groupContext="shape" transform="translate(146.745,49.4454) rotate(45)">
				<title>Blad.38</title>
				<path d="M0 207.53 L16.04 207.53" class="st3"/>
			</g>
			<g id="shape39-109" v:mID="39" v:groupContext="shape" transform="translate(146.745,52.28) rotate(45)">
				<title>Blad.39</title>
				<path d="M0 207.53 L12.03 207.53" class="st3"/>
			</g>
			<g id="shape40-112" v:mID="40" v:groupContext="shape" transform="translate(146.745,55.1147) rotate(45)">
				<title>Blad.40</title>
				<path d="M0 207.53 L8.02 207.53" class="st3"/>
			</g>
			<g id="shape41-115" v:mID="41" v:groupContext="shape" transform="translate(146.745,57.9493) rotate(45)">
				<title>Blad.41</title>
				<path d="M0 207.53 L4.01 207.53" class="st3"/>
			</g>
		</g>
		<g id="shape42-118" v:mID="42" v:groupContext="shape" transform="translate(167.619,-71.0915)">
			<title>Ligger, 2 pt.42</title>
			<path d="M0 207.53 L42.52 207.53" class="st4"/>
		</g>
		<g id="shape43-121" v:mID="43" v:groupContext="shape" transform="translate(417.668,122.265) rotate(90)">
			<title>Moment.43</title>
			<path d="M-0 207.53 A14.1732 14.1732 0 0 1 14.17 193.36 A14.1732 14.1732 0 0 1 26.14 199.93 L26.24 200.28" class="st5"/>
		</g>
		<g id="group44-126" transform="translate(231.399,-56.9182)" v:mID="44" v:groupContext="group">
			<title>x-as.44</title>
			<g id="shape45-127" v:mID="45" v:groupContext="shape" transform="translate(-2.36735E-12,-14.1732)">
				<title>Blad.45</title>
				<path d="M0 207.53 L22.62 207.53" class="st7"/>
			</g>
			<g id="shape46-132" v:mID="46" v:groupContext="shape" transform="translate(14.1732,2.84217E-14)">
				<title>Blad.46</title>
				<desc>x</desc>
				<v:textBlock v:margins="rect(4,4,4,4)" v:tabSpace="42.5197"/>
				<v:textRect cx="7.08661" cy="200.443" width="14.18" height="14.1732"/>
				<rect x="0" y="193.356" width="14.1732" height="14.1732" class="st9"/>
				<text x="4.42" y="204.04" class="st10" v:langID="1043"><v:paragraph v:horizAlign="1"/><v:tabList/>x</text>			</g>
		</g>
		<g id="group47-135" transform="translate(167.619,-21.4852)" v:mID="47" v:groupContext="group">
			<title>z-as.47</title>
			<g id="shape48-136" v:mID="48" v:groupContext="shape" transform="translate(207.529,179.183) rotate(90)">
				<title>Blad.48</title>
				<path d="M0 207.53 L22.62 207.53" class="st7"/>
			</g>
			<g id="shape49-141" v:mID="49" v:groupContext="shape">
				<title>Blad.49</title>
				<desc>y</desc>
				<v:textBlock v:margins="rect(4,4,4,4)" v:tabSpace="42.5197"/>
				<v:textRect cx="7.08661" cy="200.443" width="14.18" height="14.1732"/>
				<rect x="0" y="193.356" width="14.1732" height="14.1732" class="st9"/>
				<text x="4.42" y="204.04" class="st10" v:langID="1043"><v:paragraph v:horizAlign="1"/><v:tabList/>y</text>			</g>
		</g>
		<g id="group53-144" transform="translate(358.958,-7.31194)" v:mID="53" v:groupContext="group">
			<title>z-as.53</title>
			<g id="shape54-145" v:mID="54" v:groupContext="shape" transform="translate(207.529,179.183) rotate(90)">
				<title>Blad.54</title>
				<path d="M0 207.53 L22.62 207.53" class="st7"/>
			</g>
			<g id="shape55-150" v:mID="55" v:groupContext="shape">
				<title>Blad.55</title>
				<desc>z</desc>
				<v:textBlock v:margins="rect(4,4,4,4)" v:tabSpace="42.5197"/>
				<v:textRect cx="7.08661" cy="200.443" width="14.18" height="14.1732"/>
				<rect x="0" y="193.356" width="14.1732" height="14.1732" class="st9"/>
				<text x="4.75" y="204.04" class="st10" v:langID="1043"><v:paragraph v:horizAlign="1"/><v:tabList/>z</text>			</g>
		</g>
		<g id="group56-153" transform="translate(531.054,136.438) rotate(90)" v:mID="56" v:groupContext="group">
			<title>z-as.56</title>
			<g id="shape57-154" v:mID="57" v:groupContext="shape" transform="translate(207.529,179.183) rotate(90)">
				<title>Blad.57</title>
				<path d="M0 207.53 L22.62 207.53" class="st7"/>
			</g>
			<g id="shape58-159" v:mID="58" v:groupContext="shape" transform="translate(-193.356,207.529) rotate(-90)">
				<title>Blad.58</title>
				<desc>y</desc>
				<v:textBlock v:margins="rect(4,4,4,4)" v:tabSpace="42.5197"/>
				<v:textRect cx="7.08661" cy="200.443" width="14.18" height="14.1732"/>
				<rect x="0" y="193.356" width="14.1732" height="14.1732" class="st9"/>
				<text x="4.42" y="204.04" class="st10" v:langID="1043"><v:paragraph v:horizAlign="1"/><v:tabList/>y</text>			</g>
		</g>
		<g id="shape59-162" v:mID="59" v:groupContext="shape" transform="translate(566.487,150.611) rotate(90) scale(-1,1)">
			<title>Moment.59</title>
			<path d="M-0 207.53 A14.1732 14.1732 0 0 1 14.17 193.36 A14.1732 14.1732 0 0 1 26.14 199.93 L26.24 200.28" class="st5"/>
		</g>
		<g id="shape62-167" v:mID="62" v:groupContext="shape" transform="translate(292.137,-142.971) rotate(36.8699)">
			<title>Ligger, 2 pt.62</title>
			<path d="M0 207.53 L53.15 207.53" class="st4"/>
		</g>
		<g id="shape64-170" v:mID="64" v:groupContext="shape" transform="translate(375.149,8.87891) rotate(90)">
			<title>Blad.64</title>
			<path d="M0 207.53 L28.35 207.53" class="st2"/>
		</g>
		<g id="shape65-173" v:mID="65" v:groupContext="shape" transform="translate(303.026,-146.371) rotate(44.9999)">
			<title>Blad.65</title>
			<path d="M0 207.53 L16.04 207.53" class="st3"/>
		</g>
		<g id="shape66-176" v:mID="66" v:groupContext="shape" transform="translate(303.026,-143.536) rotate(45)">
			<title>Blad.66</title>
			<path d="M0 207.53 L16.04 207.53" class="st3"/>
		</g>
		<g id="shape67-179" v:mID="67" v:groupContext="shape" transform="translate(303.026,-140.701) rotate(45)">
			<title>Blad.67</title>
			<path d="M0 207.53 L16.04 207.53" class="st3"/>
		</g>
		<g id="shape68-182" v:mID="68" v:groupContext="shape" transform="translate(303.026,-137.867) rotate(45)">
			<title>Blad.68</title>
			<path d="M0 207.53 L16.04 207.53" class="st3"/>
		</g>
		<g id="shape69-185" v:mID="69" v:groupContext="shape" transform="translate(303.026,-135.032) rotate(45)">
			<title>Blad.69</title>
			<path d="M0 207.53 L16.04 207.53" class="st3"/>
		</g>
		<g id="shape70-188" v:mID="70" v:groupContext="shape" transform="translate(312.475,-122.748) rotate(45)">
			<title>Blad.70</title>
			<path d="M0 207.53 L2.67 207.53" class="st3"/>
		</g>
		<g id="shape71-191" v:mID="71" v:groupContext="shape" transform="translate(310.585,-121.804) rotate(45)">
			<title>Blad.71</title>
			<path d="M0 207.53 L5.35 207.53" class="st3"/>
		</g>
		<g id="shape72-194" v:mID="72" v:groupContext="shape" transform="translate(308.695,-120.859) rotate(45)">
			<title>Blad.72</title>
			<path d="M0 207.53 L8.02 207.53" class="st3"/>
		</g>
		<g id="shape73-197" v:mID="73" v:groupContext="shape" transform="translate(306.072,-120.574) rotate(44.7325)">
			<title>Blad.73</title>
			<path d="M0 207.53 L10.71 207.53" class="st3"/>
		</g>
		<g id="shape74-200" v:mID="74" v:groupContext="shape" transform="translate(304.916,-118.969) rotate(45)">
			<title>Blad.74</title>
			<path d="M0 207.53 L13.36 207.53" class="st3"/>
		</g>
		<g id="shape162-203" v:mID="162" v:groupContext="shape" transform="translate(334.656,-111.082) rotate(36.8699)">
			<title>Blad.162</title>
			<path d="M0 207.53 L21.26 207.53" class="st11"/>
		</g>
		<g id="shape163-206" v:mID="163" v:groupContext="shape" transform="translate(302.949,240.562) rotate(153.435)">
			<title>Blad.163</title>
			<path d="M0 207.53 L21.26 207.53" class="st11"/>
		</g>
		<g id="shape164-209" v:mID="164" v:groupContext="shape" transform="translate(2.60933,54.9419) rotate(-90)">
			<title>Blad.164</title>
			<path d="M0 207.53 L21.26 207.53" class="st11"/>
		</g>
		<g id="shape189-212" v:mID="189" v:groupContext="shape" transform="translate(417.668,40.7687) rotate(90)">
			<title>Blad.189</title>
			<path d="M3.16 203.94 L3.4 203.67 C11.92 195.43 23.58 193.32 29.34 199.78 C30.64 201.24 31.64 203.13 28.35 207.53"
					class="st12"/>
		</g>
		<g id="shape194-218" v:mID="194" v:groupContext="shape" transform="translate(315.626,234.223) rotate(153.435)">
			<title>Blad.194</title>
			<path d="M0 207.53 C-4.31 198.91 3.48 191.64 17.83 196.13 C20.12 196.85 22.58 197.87 25.84 203.03 L26.02 203.35"
					class="st14"/>
		</g>
		<g id="group197-224" transform="translate(167.619,-134.871)" v:mID="197" v:groupContext="group">
			<title>z-as.197</title>
			<g id="shape198-225" v:mID="198" v:groupContext="shape" transform="translate(207.529,179.183) rotate(90)">
				<title>Blad.198</title>
				<path d="M0 207.53 L22.62 207.53" class="st7"/>
			</g>
			<g id="shape199-230" v:mID="199" v:groupContext="shape">
				<title>Blad.199</title>
				<desc>z</desc>
				<v:textBlock v:margins="rect(4,4,4,4)" v:tabSpace="42.5197"/>
				<v:textRect cx="7.08661" cy="200.443" width="14.18" height="14.1732"/>
				<rect x="0" y="193.356" width="14.1732" height="14.1732" class="st9"/>
				<text x="4.75" y="204.04" class="st10" v:langID="1043"><v:paragraph v:horizAlign="1"/><v:tabList/>z</text>			</g>
		</g>
		<g id="shape202-233" v:mID="202" v:groupContext="shape" transform="translate(125.099,-141.958)">
			<title>Blad.202</title>
			<desc>y</desc>
			<v:textBlock v:margins="rect(4,4,4,4)" v:tabSpace="42.5197"/>
			<v:textRect cx="7.08661" cy="200.443" width="14.18" height="14.1732"/>
			<rect x="0" y="193.356" width="14.1732" height="14.1732" class="st9"/>
			<text x="4.42" y="204.04" class="st10" v:langID="1043"><v:paragraph v:horizAlign="1"/><v:tabList/>y</text>		</g>
		<g id="shape206-236" v:mID="206" v:groupContext="shape" transform="translate(363.003,-89.8217) rotate(36.8699)">
			<title>Blad.206</title>
			<path d="M0 207.53 L22.62 207.53" class="st7"/>
		</g>
		<g id="shape207-241" v:mID="207" v:groupContext="shape" transform="translate(252.658,-119.28)">
			<title>Blad.207</title>
			<desc>x</desc>
			<v:textBlock v:margins="rect(4,4,4,4)" v:tabSpace="42.5197"/>
			<v:textRect cx="7.08661" cy="200.443" width="14.18" height="14.1732"/>
			<rect x="0" y="193.356" width="14.1732" height="14.1732" class="st9"/>
			<text x="4.42" y="204.04" class="st10" v:langID="1043"><v:paragraph v:horizAlign="1"/><v:tabList/>x</text>		</g>
		<g id="shape208-244" v:mID="208" v:groupContext="shape" transform="translate(405.04,40.7687) rotate(90)">
			<title>Blad.208</title>
			<path d="M0 194.9 C5.03 204.95 20.06 212.17 28.19 204.21 C29.21 203.22 30.12 201.98 29.94 199.79 L29.83 199.45"
					class="st14"/>
		</g>
		<g id="shape211-249" v:mID="211" v:groupContext="shape" transform="translate(242.238,217.768) rotate(153.435)">
			<title>Blad.211</title>
			<path d="M0 207.53 L22.62 207.53" class="st7"/>
		</g>
		<g id="shape214-254" v:mID="214" v:groupContext="shape" transform="translate(344.784,-42.745)">
			<title>Blad.214</title>
			<desc>Mt</desc>
			<v:textBlock v:margins="rect(4,4,4,4)" v:tabSpace="42.5197"/>
			<v:textRect cx="14.1732" cy="200.443" width="28.35" height="14.1732"/>
			<rect x="0" y="193.356" width="28.3465" height="14.1732" class="st9"/>
			<text x="8.09" y="204.04" class="st10" v:langID="1043"><v:paragraph v:horizAlign="1"/><v:tabList/>M<tspan dy="-0.279em"
						class="st15" v:baseFontSize="12">t</tspan></text>		</g>
		<g id="shape215-258" v:mID="215" v:groupContext="shape" transform="translate(40.06,-85.2647)">
			<title>Blad.215</title>
			<desc>Mz</desc>
			<v:textBlock v:margins="rect(4,4,4,4)" v:tabSpace="42.5197"/>
			<v:textRect cx="14.1732" cy="200.443" width="28.35" height="14.1732"/>
			<rect x="0" y="193.356" width="28.3465" height="14.1732" class="st9"/>
			<text x="7.66" y="204.04" class="st10" v:langID="1043"><v:paragraph v:horizAlign="1"/><v:tabList/>M<tspan dy="-0.279em"
						class="st16" v:baseFontSize="12">z</tspan></text>		</g>
		<g id="shape216-262" v:mID="216" v:groupContext="shape" transform="translate(195.966,-42.745)">
			<title>Blad.216</title>
			<desc>My</desc>
			<v:textBlock v:margins="rect(4,4,4,4)" v:tabSpace="42.5197"/>
			<v:textRect cx="14.1732" cy="200.443" width="28.35" height="14.1732"/>
			<rect x="0" y="193.356" width="28.3465" height="14.1732" class="st9"/>
			<text x="7.44" y="204.04" class="st10" v:langID="1043"><v:paragraph v:horizAlign="1"/><v:tabList/>M<tspan dy="-0.279em"
						class="st16" v:baseFontSize="12">y</tspan></text>		</g>
		<g id="shape250-266" v:mID="250" v:groupContext="shape" transform="translate(174.706,-137.706)">
			<title>Blad.250</title>
			<desc>My</desc>
			<v:textBlock v:margins="rect(4,4,4,4)" v:tabSpace="42.5197"/>
			<v:textRect cx="14.1732" cy="200.443" width="28.35" height="14.1732"/>
			<rect x="0" y="193.356" width="28.3465" height="14.1732" class="st9"/>
			<text x="7.44" y="204.04" class="st10" v:langID="1043"><v:paragraph v:horizAlign="1"/><v:tabList/>M<tspan dy="-0.279em"
						class="st16" v:baseFontSize="12">y</tspan></text>		</g>
		<g id="shape251-270" v:mID="251" v:groupContext="shape" transform="translate(207.304,-164.635)">
			<title>Blad.251</title>
			<desc>Mz</desc>
			<v:textBlock v:margins="rect(4,4,4,4)" v:tabSpace="42.5197"/>
			<v:textRect cx="14.1732" cy="200.443" width="28.35" height="14.1732"/>
			<rect x="0" y="193.356" width="28.3465" height="14.1732" class="st9"/>
			<text x="7.66" y="204.04" class="st10" v:langID="1043"><v:paragraph v:horizAlign="1"/><v:tabList/>M<tspan dy="-0.279em"
						class="st16" v:baseFontSize="12">z</tspan></text>		</g>
		<g id="shape252-274" v:mID="252" v:groupContext="shape" transform="translate(195.966,-120.698)">
			<title>Blad.252</title>
			<desc>Mt</desc>
			<v:textBlock v:margins="rect(4,4,4,4)" v:tabSpace="42.5197"/>
			<v:textRect cx="14.1732" cy="200.443" width="28.35" height="14.1732"/>
			<rect x="0" y="193.356" width="28.3465" height="14.1732" class="st9"/>
			<text x="8.09" y="204.04" class="st10" v:langID="1043"><v:paragraph v:horizAlign="1"/><v:tabList/>M<tspan dy="-0.279em"
						class="st15" v:baseFontSize="12">t</tspan></text>		</g>
		<g id="shape263-278" v:mID="263" v:groupContext="shape" transform="translate(273.106,202.334) rotate(153.435)">
			<title>Blad.263</title>
			<path d="M0 207.53 L28.35 207.53" class="st2"/>
		</g>
		<g id="shape264-281" v:mID="264" v:groupContext="shape" transform="translate(375.486,81.0724) rotate(108.435)">
			<title>Blad.264</title>
			<path d="M0 207.53 L2.67 207.53" class="st3"/>
		</g>
		<g id="shape265-284" v:mID="265" v:groupContext="shape" transform="translate(373.795,79.8047) rotate(108.435)">
			<title>Blad.265</title>
			<path d="M0 207.53 L5.35 207.53" class="st3"/>
		</g>
		<g id="shape266-287" v:mID="266" v:groupContext="shape" transform="translate(372.105,78.537) rotate(108.435)">
			<title>Blad.266</title>
			<path d="M0 207.53 L8.02 207.53" class="st3"/>
		</g>
		<g id="shape267-290" v:mID="267" v:groupContext="shape" transform="translate(370.415,77.2693) rotate(108.435)">
			<title>Blad.267</title>
			<path d="M0 207.53 L10.69 207.53" class="st3"/>
		</g>
		<g id="shape268-293" v:mID="268" v:groupContext="shape" transform="translate(368.724,76.0016) rotate(108.435)">
			<title>Blad.268</title>
			<path d="M0 207.53 L13.36 207.53" class="st3"/>
		</g>
		<g id="shape269-296" v:mID="269" v:groupContext="shape" transform="translate(367.034,74.734) rotate(108.435)">
			<title>Blad.269</title>
			<path d="M0 207.53 L7.12 207.53" class="st3"/>
		</g>
		<g id="shape270-299" v:mID="270" v:groupContext="shape" transform="translate(361.118,86.1432) rotate(108.435)">
			<title>Blad.270</title>
			<path d="M0 207.53 L5.35 207.53" class="st3"/>
		</g>
		<g id="shape271-302" v:mID="271" v:groupContext="shape" transform="translate(359.428,84.8755) rotate(108.435)">
			<title>Blad.271</title>
			<path d="M0 207.53 L8.02 207.53" class="st3"/>
		</g>
		<g id="shape272-305" v:mID="272" v:groupContext="shape" transform="translate(357.738,83.6078) rotate(108.435)">
			<title>Blad.272</title>
			<path d="M0 207.53 L10.69 207.53" class="st3"/>
		</g>
		<g id="shape273-308" v:mID="273" v:groupContext="shape" transform="translate(356.048,82.3401) rotate(108.435)">
			<title>Blad.273</title>
			<path d="M0 207.53 L13.36 207.53" class="st3"/>
		</g>
		<g id="shape274-311" v:mID="274" v:groupContext="shape" transform="translate(354.357,81.0724) rotate(108.435)">
			<title>Blad.274</title>
			<path d="M0 207.53 L13.36 207.53" class="st3"/>
		</g>
		<g id="shape275-314" v:mID="275" v:groupContext="shape" transform="translate(351.822,82.3401) rotate(108.435)">
			<title>Blad.275</title>
			<path d="M0 207.53 L10.69 207.53" class="st3"/>
		</g>
		<g id="shape276-317" v:mID="276" v:groupContext="shape" transform="translate(349.287,83.6078) rotate(108.435)">
			<title>Blad.276</title>
			<path d="M0 207.53 L8.02 207.53" class="st3"/>
		</g>
		<g id="shape289-320" v:mID="289" v:groupContext="shape" transform="translate(346.751,84.8755) rotate(108.435)">
			<title>Blad.289</title>
			<path d="M0 207.53 L5.35 207.53" class="st3"/>
		</g>
		<g id="shape290-323" v:mID="290" v:groupContext="shape" transform="translate(344.216,86.1432) rotate(108.435)">
			<title>Blad.290</title>
			<path d="M0 207.53 L2.67 207.53" class="st3"/>
		</g>
		<g id="shape291-326" v:mID="291" v:groupContext="shape" transform="translate(362.809,87.4109) rotate(108.435)">
			<title>Blad.291</title>
			<path d="M0 207.53 L2.67 207.53" class="st3"/>
		</g>
	</g>
</svg>
