<?xml version="1.0" encoding="UTF-8" standalone="no"?>
<!DOCTYPE svg PUBLIC "-//W3C//DTD SVG 1.1//EN" "http://www.w3.org/Graphics/SVG/1.1/DTD/svg11.dtd">
<!-- Gegenereerd door Microsoft Visio, SVG Export 3D.svg Pagina-1 -->
<svg xmlns="http://www.w3.org/2000/svg" xmlns:xlink="http://www.w3.org/1999/xlink" xmlns:ev="http://www.w3.org/2001/xml-events"
		xmlns:v="http://schemas.microsoft.com/visio/2003/SVGExtensions/" width="8.39624in" height="3.30241in"
		viewBox="0 0 604.53 237.773" xml:space="preserve" color-interpolation-filters="sRGB" class="st18">
	<v:documentProperties v:langID="1043" v:metric="true" v:viewMarkup="false"/>

	<style type="text/css">
	<![CDATA[
		.st1 {stroke:#000000;stroke-dasharray:0.75,1.5;stroke-linecap:round;stroke-linejoin:round;stroke-width:0.75}
		.st2 {stroke:#000000;stroke-linecap:round;stroke-linejoin:round;stroke-width:0.25}
		.st3 {marker-end:url(#mrkr4-21);marker-start:url(#mrkr4-19);stroke:#000000;stroke-linecap:round;stroke-linejoin:round;stroke-width:0.25}
		.st4 {fill:#000000;fill-opacity:1;stroke:#000000;stroke-opacity:1;stroke-width:0.12195121951219}
		.st5 {fill:none;stroke:none;stroke-linecap:round;stroke-linejoin:round;stroke-width:0.75}
		.st6 {fill:#000000;font-family:Times New Roman;font-size:1.00001em}
		.st7 {stroke:#000000;stroke-linecap:round;stroke-linejoin:round;stroke-width:1.2}
		.st8 {stroke:#000000;stroke-linecap:round;stroke-linejoin:round;stroke-width:0.75}
		.st9 {stroke:#000000;stroke-linecap:round;stroke-linejoin:round;stroke-width:2}
		.st10 {marker-end:url(#mrkr5-129);stroke:#000000;stroke-linecap:round;stroke-linejoin:round;stroke-width:0.75}
		.st11 {fill:#000000;fill-opacity:1;stroke:#000000;stroke-opacity:1;stroke-width:0.22935779816514}
		.st12 {fill:#000000;font-family:Times New Roman;font-size:1.00001em;font-style:italic}
		.st13 {marker-end:url(#mrkr5-154);stroke:#800000;stroke-linecap:round;stroke-linejoin:round;stroke-width:1.2}
		.st14 {fill:#800000;fill-opacity:1;stroke:#800000;stroke-opacity:1;stroke-width:0.45454545454546}
		.st15 {stroke:#800000;stroke-linecap:round;stroke-linejoin:round;stroke-width:1.2}
		.st16 {marker-start:url(#mrkr5-188);stroke:#800000;stroke-linecap:round;stroke-linejoin:round;stroke-width:2}
		.st17 {fill:#800000;fill-opacity:1;stroke:#800000;stroke-opacity:1;stroke-width:0.44247787610619}
		.st18 {fill:none;fill-rule:evenodd;font-size:12px;overflow:visible;stroke-linecap:square;stroke-miterlimit:3}
	]]>
	</style>

	<defs id="Markers">
		<g id="lend4">
			<path d="M 2 1 L 0 0 L 2 -1 L 2 1 " style="stroke:none"/>
		</g>
		<marker id="mrkr4-19" class="st4" v:arrowType="4" v:arrowSize="1" v:setback="14.96" refX="14.96" orient="auto"
				markerUnits="strokeWidth" overflow="visible">
			<use xlink:href="#lend4" transform="scale(8.2) "/>
		</marker>
		<marker id="mrkr4-21" class="st4" v:arrowType="4" v:arrowSize="1" v:setback="16.4" refX="-16.4" orient="auto"
				markerUnits="strokeWidth" overflow="visible">
			<use xlink:href="#lend4" transform="scale(-8.2,-8.2) "/>
		</marker>
		<g id="lend5">
			<path d="M 2 1 L 0 0 L 1.98117 -0.993387 C 1.67173 -0.364515 1.67301 0.372641 1.98465 1.00043 " style="stroke:none"/>
		</g>
		<marker id="mrkr5-129" class="st11" v:arrowType="5" v:arrowSize="2" v:setback="7.63" refX="-7.63" orient="auto"
				markerUnits="strokeWidth" overflow="visible">
			<use xlink:href="#lend5" transform="scale(-4.36,-4.36) "/>
		</marker>
		<marker id="mrkr5-154" class="st14" v:arrowType="5" v:arrowSize="0" v:setback="3.85" refX="-3.85" orient="auto"
				markerUnits="strokeWidth" overflow="visible">
			<use xlink:href="#lend5" transform="scale(-2.2,-2.2) "/>
		</marker>
		<marker id="mrkr5-188" class="st17" v:arrowType="5" v:arrowSize="2" v:setback="3.775" refX="3.775" orient="auto"
				markerUnits="strokeWidth" overflow="visible">
			<use xlink:href="#lend5" transform="scale(2.26) "/>
		</marker>
	</defs>
	<g v:mID="0" v:index="1" v:groupContext="foregroundPage">
		<title>Pagina-1</title>
		<v:pageProperties v:drawingScale="0.0393701" v:pageScale="0.0393701" v:drawingUnits="24" v:shadowOffsetX="8.50394"
				v:shadowOffsetY="-8.50394"/>
		<g id="shape596-1" v:mID="596" v:groupContext="shape" transform="translate(511.687,279.471) rotate(153.435)">
			<title>Ligger, 2 pt.596</title>
			<path d="M0 237.77 L17.01 237.77" class="st1"/>
		</g>
		<g id="shape598-4" v:mID="598" v:groupContext="shape" transform="translate(571.214,324.116) rotate(153.435)">
			<title>Ligger, 2 pt.598</title>
			<path d="M0 237.77 L17.01 237.77" class="st1"/>
		</g>
		<g id="shape601-7" v:mID="601" v:groupContext="shape" transform="translate(630.742,368.762) rotate(153.435)">
			<title>Ligger, 2 pt.601</title>
			<path d="M0 237.77 L17.01 237.77" class="st1"/>
		</g>
		<g id="shape371-10" v:mID="371" v:groupContext="shape" transform="translate(115.583,289.005) rotate(153.435)">
			<title>Blad.371</title>
			<path d="M0 237.77 L4.25 237.77" class="st2"/>
		</g>
		<g id="shape373-13" v:mID="373" v:groupContext="shape" transform="translate(151.912,-113.884) rotate(36.8699)">
			<title>Blad.373</title>
			<path d="M3.74 237.77 L4.1 237.77 L45.51 237.77" class="st3"/>
		</g>
		<g id="shape374-22" v:mID="374" v:groupContext="shape" transform="translate(143.039,-103.057) rotate(36.8699)">
			<title>Blad.374</title>
			<desc>17.5 m</desc>
			<v:textBlock v:margins="rect(4,4,4,4)" v:tabSpace="42.5197"/>
			<v:textRect cx="24.8032" cy="230.687" width="49.61" height="14.1732"/>
			<rect x="0" y="223.6" width="49.6063" height="14.1732" class="st5"/>
			<text x="8.14" y="234.29" class="st6" v:langID="1043"><v:paragraph v:horizAlign="1"/><v:tabList/>17.5 m</text>		</g>
		<g id="group446-25" transform="translate(51.5039,-178.958)" v:mID="446" v:groupContext="group">
			<title>Inklemming 3D.177</title>
			<g id="shape447-26" v:mID="447" v:groupContext="shape" transform="translate(258.901,209.427) rotate(90)">
				<title>Blad.447</title>
				<path d="M0 237.77 L28.35 237.77" class="st7"/>
			</g>
			<g id="shape448-29" v:mID="448" v:groupContext="shape" transform="translate(177.92,32.7916) rotate(44.9999)">
				<title>Blad.448</title>
				<path d="M0 237.77 L16.04 237.77" class="st8"/>
			</g>
			<g id="shape449-32" v:mID="449" v:groupContext="shape" transform="translate(177.921,35.6265) rotate(45)">
				<title>Blad.449</title>
				<path d="M0 237.77 L16.04 237.77" class="st8"/>
			</g>
			<g id="shape450-35" v:mID="450" v:groupContext="shape" transform="translate(177.921,38.4611) rotate(45)">
				<title>Blad.450</title>
				<path d="M0 237.77 L16.04 237.77" class="st8"/>
			</g>
			<g id="shape451-38" v:mID="451" v:groupContext="shape" transform="translate(177.921,41.2957) rotate(45)">
				<title>Blad.451</title>
				<path d="M0 237.77 L16.04 237.77" class="st8"/>
			</g>
			<g id="shape452-41" v:mID="452" v:groupContext="shape" transform="translate(177.921,44.1304) rotate(45)">
				<title>Blad.452</title>
				<path d="M0 237.77 L16.04 237.77" class="st8"/>
			</g>
			<g id="shape453-44" v:mID="453" v:groupContext="shape" transform="translate(187.37,56.4138) rotate(45)">
				<title>Blad.453</title>
				<path d="M0 237.77 L2.67 237.77" class="st8"/>
			</g>
			<g id="shape454-47" v:mID="454" v:groupContext="shape" transform="translate(185.48,57.3587) rotate(45)">
				<title>Blad.454</title>
				<path d="M0 237.77 L5.35 237.77" class="st8"/>
			</g>
			<g id="shape455-50" v:mID="455" v:groupContext="shape" transform="translate(183.59,58.3036) rotate(45)">
				<title>Blad.455</title>
				<path d="M0 237.77 L8.02 237.77" class="st8"/>
			</g>
			<g id="shape456-53" v:mID="456" v:groupContext="shape" transform="translate(180.866,58.489) rotate(44.7325)">
				<title>Blad.456</title>
				<path d="M0 237.77 L10.71 237.77" class="st8"/>
			</g>
			<g id="shape457-56" v:mID="457" v:groupContext="shape" transform="translate(179.811,60.1934) rotate(45)">
				<title>Blad.457</title>
				<path d="M0 237.77 L13.36 237.77" class="st8"/>
			</g>
			<g id="shape458-59" v:mID="458" v:groupContext="shape" transform="translate(140.141,429.932) rotate(153.435)">
				<title>Blad.458</title>
				<path d="M0 237.77 L28.35 237.77" class="st7"/>
			</g>
			<g id="shape459-62" v:mID="459" v:groupContext="shape" transform="translate(257.686,291.184) rotate(108.435)">
				<title>Blad.459</title>
				<path d="M0 237.77 L2.67 237.77" class="st8"/>
			</g>
			<g id="shape460-65" v:mID="460" v:groupContext="shape" transform="translate(255.996,289.917) rotate(108.435)">
				<title>Blad.460</title>
				<path d="M0 237.77 L5.35 237.77" class="st8"/>
			</g>
			<g id="shape461-68" v:mID="461" v:groupContext="shape" transform="translate(254.306,288.649) rotate(108.435)">
				<title>Blad.461</title>
				<path d="M0 237.77 L8.02 237.77" class="st8"/>
			</g>
			<g id="shape462-71" v:mID="462" v:groupContext="shape" transform="translate(252.616,287.381) rotate(108.435)">
				<title>Blad.462</title>
				<path d="M0 237.77 L10.69 237.77" class="st8"/>
			</g>
			<g id="shape463-74" v:mID="463" v:groupContext="shape" transform="translate(250.925,286.113) rotate(108.435)">
				<title>Blad.463</title>
				<path d="M0 237.77 L13.36 237.77" class="st8"/>
			</g>
			<g id="shape464-77" v:mID="464" v:groupContext="shape" transform="translate(249.235,284.846) rotate(108.435)">
				<title>Blad.464</title>
				<path d="M0 237.77 L7.12 237.77" class="st8"/>
			</g>
			<g id="shape465-80" v:mID="465" v:groupContext="shape" transform="translate(243.319,296.255) rotate(108.435)">
				<title>Blad.465</title>
				<path d="M0 237.77 L5.35 237.77" class="st8"/>
			</g>
			<g id="shape466-83" v:mID="466" v:groupContext="shape" transform="translate(241.629,294.987) rotate(108.435)">
				<title>Blad.466</title>
				<path d="M0 237.77 L8.02 237.77" class="st8"/>
			</g>
			<g id="shape467-86" v:mID="467" v:groupContext="shape" transform="translate(239.939,293.72) rotate(108.435)">
				<title>Blad.467</title>
				<path d="M0 237.77 L10.69 237.77" class="st8"/>
			</g>
			<g id="shape468-89" v:mID="468" v:groupContext="shape" transform="translate(238.249,292.452) rotate(108.435)">
				<title>Blad.468</title>
				<path d="M0 237.77 L13.36 237.77" class="st8"/>
			</g>
			<g id="shape469-92" v:mID="469" v:groupContext="shape" transform="translate(236.558,291.184) rotate(108.435)">
				<title>Blad.469</title>
				<path d="M0 237.77 L13.36 237.77" class="st8"/>
			</g>
			<g id="shape470-95" v:mID="470" v:groupContext="shape" transform="translate(234.023,292.452) rotate(108.435)">
				<title>Blad.470</title>
				<path d="M0 237.77 L10.69 237.77" class="st8"/>
			</g>
			<g id="shape471-98" v:mID="471" v:groupContext="shape" transform="translate(231.487,293.72) rotate(108.435)">
				<title>Blad.471</title>
				<path d="M0 237.77 L8.02 237.77" class="st8"/>
			</g>
			<g id="shape472-101" v:mID="472" v:groupContext="shape" transform="translate(228.952,294.987) rotate(108.435)">
				<title>Blad.472</title>
				<path d="M0 237.77 L5.35 237.77" class="st8"/>
			</g>
			<g id="shape473-104" v:mID="473" v:groupContext="shape" transform="translate(226.417,296.255) rotate(108.435)">
				<title>Blad.473</title>
				<path d="M0 237.77 L2.67 237.77" class="st8"/>
			</g>
			<g id="shape474-107" v:mID="474" v:groupContext="shape" transform="translate(245.01,297.523) rotate(108.435)">
				<title>Blad.474</title>
				<path d="M0 237.77 L2.67 237.77" class="st8"/>
			</g>
		</g>
		<g id="shape475-110" v:mID="475" v:groupContext="shape" transform="translate(215.322,-145.576) rotate(36.8699)">
			<title>Ligger, 2 pt.475</title>
			<path d="M0 237.77 L49.61 237.77" class="st9"/>
		</g>
		<g id="shape476-113" v:mID="476" v:groupContext="shape" transform="translate(255.007,-115.813) rotate(36.8699)">
			<title>Ligger, 2 pt.476</title>
			<path d="M0 237.77 L74.41 237.77" class="st9"/>
		</g>
		<g id="shape477-116" v:mID="477" v:groupContext="shape" transform="translate(314.535,-71.1668) rotate(36.8699)">
			<title>Ligger, 2 pt.477</title>
			<path d="M0 237.77 L74.41 237.77" class="st9"/>
		</g>
		<g id="shape478-119" v:mID="478" v:groupContext="shape" transform="translate(374.063,-26.5212) rotate(36.8699)">
			<title>Ligger, 2 pt.478</title>
			<path d="M0 237.77 L28.35 237.77" class="st9"/>
		</g>
		<g id="group479-122" transform="translate(72.6585,-143.525)" v:mID="479" v:groupContext="group">
			<title>z-as.479</title>
			<g id="shape480-123" v:mID="480" v:groupContext="shape" transform="translate(237.773,209.427) rotate(90)">
				<title>Blad.480</title>
				<path d="M0 237.77 L22.62 237.77" class="st10"/>
			</g>
			<g id="shape481-130" v:mID="481" v:groupContext="shape">
				<title>Blad.481</title>
				<desc>z</desc>
				<v:textBlock v:margins="rect(4,4,4,4)" v:tabSpace="42.5197"/>
				<v:textRect cx="7.08661" cy="230.687" width="14.18" height="14.1732"/>
				<rect x="0" y="223.6" width="14.1732" height="14.1732" class="st5"/>
				<text x="4.75" y="234.29" class="st12" v:langID="1043"><v:paragraph v:horizAlign="1"/><v:tabList/>z</text>			</g>
		</g>
		<g id="shape483-133" v:mID="483" v:groupContext="shape" transform="translate(408.078,-1.00935) rotate(36.8699)">
			<title>Blad.483</title>
			<path d="M0 237.77 L22.62 237.77" class="st10"/>
		</g>
		<g id="shape484-138" v:mID="484" v:groupContext="shape" transform="translate(271.084,-23.0522)">
			<title>Blad.484</title>
			<desc>x</desc>
			<v:textBlock v:margins="rect(4,4,4,4)" v:tabSpace="42.5197"/>
			<v:textRect cx="7.08661" cy="230.687" width="14.18" height="14.1732"/>
			<rect x="0" y="223.6" width="14.1732" height="14.1732" class="st5"/>
			<text x="4.42" y="234.29" class="st12" v:langID="1043"><v:paragraph v:horizAlign="1"/><v:tabList/>x</text>		</g>
		<g id="shape486-141" v:mID="486" v:groupContext="shape" transform="translate(153.614,269.99) rotate(153.435)">
			<title>Blad.486</title>
			<path d="M0 237.77 L22.62 237.77" class="st10"/>
		</g>
		<g id="shape491-146" v:mID="491" v:groupContext="shape" transform="translate(23.0522,-157.698)">
			<title>z-as.481</title>
			<desc>y</desc>
			<v:textBlock v:margins="rect(4,4,4,4)" v:tabSpace="42.5197"/>
			<v:textRect cx="7.08661" cy="230.687" width="14.18" height="14.1732"/>
			<rect x="0" y="223.6" width="14.1732" height="14.1732" class="st5"/>
			<text x="4.42" y="234.29" class="st12" v:langID="1043"><v:paragraph v:horizAlign="1"/><v:tabList/>y</text>		</g>
		<g id="shape494-149" v:mID="494" v:groupContext="shape" transform="translate(310.432,30.4691) rotate(90)">
			<title>Kracht.5</title>
			<path d="M0 237.77 L9.55 237.77" class="st13"/>
		</g>
		<g id="shape495-155" v:mID="495" v:groupContext="shape" transform="translate(215.283,-159.759) rotate(36.8659)">
			<title>Blad.495</title>
			<path d="M0 237.77 L226.79 237.77" class="st15"/>
		</g>
		<g id="shape496-158" v:mID="496" v:groupContext="shape" transform="translate(346.715,57.6817) rotate(90)">
			<title>Kracht.4</title>
			<path d="M0 237.77 L9.55 237.77" class="st13"/>
		</g>
		<g id="shape497-163" v:mID="497" v:groupContext="shape" transform="translate(382.999,84.8943) rotate(90)">
			<title>Kracht.9</title>
			<path d="M0 237.77 L9.55 237.77" class="st13"/>
		</g>
		<g id="shape498-168" v:mID="498" v:groupContext="shape" transform="translate(491.849,166.532) rotate(90)">
			<title>Kracht.6</title>
			<path d="M0 237.77 L9.55 237.77" class="st13"/>
		</g>
		<g id="shape499-173" v:mID="499" v:groupContext="shape" transform="translate(419.282,112.107) rotate(90)">
			<title>Kracht.37</title>
			<path d="M0 237.77 L9.55 237.77" class="st13"/>
		</g>
		<g id="shape502-178" v:mID="502" v:groupContext="shape" transform="translate(455.566,139.32) rotate(90)">
			<title>Kracht.502</title>
			<path d="M0 237.77 L9.55 237.77" class="st13"/>
		</g>
		<g id="shape503-183" v:mID="503" v:groupContext="shape" transform="translate(205.779,-133.718) rotate(36.8699)">
			<title>Kracht.503</title>
			<path d="M7.55 237.77 L7.91 237.77 L42.52 237.77" class="st16"/>
		</g>
		<g id="shape505-189" v:mID="505" v:groupContext="shape" transform="translate(218.679,287.077) rotate(153.435)">
			<title>Ligger, 2 pt.505</title>
			<path d="M0 237.77 L17.01 237.77" class="st1"/>
		</g>
		<g id="shape506-192" v:mID="506" v:groupContext="shape" transform="translate(334.905,25.3194) rotate(90)">
			<title>Kracht.506</title>
			<path d="M7.55 237.77 L7.91 237.77 L56.69 237.77" class="st16"/>
		</g>
		<g id="shape507-197" v:mID="507" v:groupContext="shape" transform="translate(278.207,331.723) rotate(153.435)">
			<title>Ligger, 2 pt.507</title>
			<path d="M0 237.77 L17.01 237.77" class="st1"/>
		</g>
		<g id="shape508-200" v:mID="508" v:groupContext="shape" transform="translate(265.307,-89.0725) rotate(36.8699)">
			<title>Kracht.508</title>
			<path d="M7.55 237.77 L7.91 237.77 L42.52 237.77" class="st16"/>
		</g>
		<g id="shape509-205" v:mID="509" v:groupContext="shape" transform="translate(394.432,69.965) rotate(90)">
			<title>Kracht.509</title>
			<path d="M7.55 237.77 L7.91 237.77 L56.69 237.77" class="st16"/>
		</g>
		<g id="shape510-210" v:mID="510" v:groupContext="shape" transform="translate(337.734,376.368) rotate(153.435)">
			<title>Ligger, 2 pt.510</title>
			<path d="M0 237.77 L17.01 237.77" class="st1"/>
		</g>
		<g id="shape511-213" v:mID="511" v:groupContext="shape" transform="translate(324.835,-44.4268) rotate(36.8699)">
			<title>Kracht.511</title>
			<path d="M7.55 237.77 L7.91 237.77 L42.52 237.77" class="st16"/>
		</g>
		<g id="shape512-218" v:mID="512" v:groupContext="shape" transform="translate(453.96,114.611) rotate(90)">
			<title>Kracht.512</title>
			<path d="M7.55 237.77 L7.91 237.77 L56.69 237.77" class="st16"/>
		</g>
		<g id="shape514-223" v:mID="514" v:groupContext="shape" transform="translate(191.597,-84.1201) rotate(36.8699)">
			<title>Blad.514</title>
			<path d="M3.74 237.77 L4.1 237.77 L70.31 237.77" class="st3"/>
		</g>
		<g id="shape521-230" v:mID="521" v:groupContext="shape" transform="translate(251.124,-39.4745) rotate(36.8699)">
			<title>Blad.521</title>
			<path d="M3.74 237.77 L4.1 237.77 L70.31 237.77" class="st3"/>
		</g>
		<g id="shape522-237" v:mID="522" v:groupContext="shape" transform="translate(310.652,5.1712) rotate(36.8699)">
			<title>Blad.522</title>
			<path d="M3.74 237.77 L4.1 237.77 L24.25 237.77" class="st3"/>
		</g>
		<g id="shape524-244" v:mID="524" v:groupContext="shape" transform="translate(405.766,427.392) rotate(153.435)">
			<title>Blad.524</title>
			<path d="M3.74 237.77 L4.1 237.77 L12.91 237.77" class="st3"/>
		</g>
		<g id="shape525-251" v:mID="525" v:groupContext="shape" transform="translate(155.268,318.769) rotate(153.435)">
			<title>Blad.525</title>
			<path d="M0 237.77 L4.25 237.77" class="st2"/>
		</g>
		<g id="shape526-254" v:mID="526" v:groupContext="shape" transform="translate(159.071,316.868) rotate(153.435)">
			<title>Blad.526</title>
			<path d="M0 237.77 L4.25 237.77" class="st2"/>
		</g>
		<g id="shape527-257" v:mID="527" v:groupContext="shape" transform="translate(119.386,287.104) rotate(153.435)">
			<title>Blad.527</title>
			<path d="M0 237.77 L4.25 237.77" class="st2"/>
		</g>
		<g id="shape528-260" v:mID="528" v:groupContext="shape" transform="translate(218.599,361.513) rotate(153.435)">
			<title>Blad.528</title>
			<path d="M0 237.77 L4.25 237.77" class="st2"/>
		</g>
		<g id="shape529-263" v:mID="529" v:groupContext="shape" transform="translate(214.796,363.415) rotate(153.435)">
			<title>Blad.529</title>
			<path d="M0 237.77 L4.25 237.77" class="st2"/>
		</g>
		<g id="shape530-266" v:mID="530" v:groupContext="shape" transform="translate(278.126,406.159) rotate(153.435)">
			<title>Blad.530</title>
			<path d="M0 237.77 L4.25 237.77" class="st2"/>
		</g>
		<g id="shape531-269" v:mID="531" v:groupContext="shape" transform="translate(274.323,408.061) rotate(153.435)">
			<title>Blad.531</title>
			<path d="M0 237.77 L4.25 237.77" class="st2"/>
		</g>
		<g id="shape532-272" v:mID="532" v:groupContext="shape" transform="translate(300.804,423.167) rotate(153.435)">
			<title>Blad.532</title>
			<path d="M0 237.77 L4.25 237.77" class="st2"/>
		</g>
		<g id="shape533-275" v:mID="533" v:groupContext="shape" transform="translate(297,425.068) rotate(153.435)">
			<title>Blad.533</title>
			<path d="M0 237.77 L4.25 237.77" class="st2"/>
		</g>
		<g id="shape534-278" v:mID="534" v:groupContext="shape" transform="translate(442.094,24.5025) rotate(36.8699)">
			<title>Blad.534</title>
			<path d="M0 237.77 L4.25 237.77" class="st2"/>
		</g>
		<g id="shape536-281" v:mID="536" v:groupContext="shape" transform="translate(438.693,21.9513) rotate(36.8699)">
			<title>Blad.536</title>
			<path d="M0 237.77 L4.25 237.77" class="st2"/>
		</g>
		<g id="shape537-284" v:mID="537" v:groupContext="shape" transform="translate(423.48,29.5575) rotate(36.8699)">
			<title>Blad.537</title>
			<path d="M0 237.77 L4.25 237.77" class="st2"/>
		</g>
		<g id="shape538-287" v:mID="538" v:groupContext="shape" transform="translate(426.882,32.1086) rotate(36.8699)">
			<title>Blad.538</title>
			<path d="M0 237.77 L4.25 237.77" class="st2"/>
		</g>
		<g id="shape540-290" v:mID="540" v:groupContext="shape" transform="translate(183.007,-72.8676) rotate(36.8699)">
			<title>Blad.540</title>
			<desc>26.25 m</desc>
			<v:textBlock v:margins="rect(4,4,4,4)" v:tabSpace="42.5197"/>
			<v:textRect cx="37.2047" cy="230.687" width="74.41" height="14.1732"/>
			<rect x="0" y="223.6" width="74.4094" height="14.1732" class="st5"/>
			<text x="17.54" y="234.29" class="st6" v:langID="1043"><v:paragraph v:horizAlign="1"/><v:tabList/>26.25 m</text>		</g>
		<g id="shape541-293" v:mID="541" v:groupContext="shape" transform="translate(241.968,-28.2219) rotate(36.8699)">
			<title>Blad.541</title>
			<desc>26.25 m</desc>
			<v:textBlock v:margins="rect(4,4,4,4)" v:tabSpace="42.5197"/>
			<v:textRect cx="37.2047" cy="230.687" width="74.41" height="14.1732"/>
			<rect x="0" y="223.6" width="74.4094" height="14.1732" class="st5"/>
			<text x="17.54" y="234.29" class="st6" v:langID="1043"><v:paragraph v:horizAlign="1"/><v:tabList/>26.25 m</text>		</g>
		<g id="shape542-296" v:mID="542" v:groupContext="shape" transform="translate(295.543,11.4631) rotate(36.8699)">
			<title>Blad.542</title>
			<desc>10 m</desc>
			<v:textBlock v:margins="rect(4,4,4,4)" v:tabSpace="42.5197"/>
			<v:textRect cx="21.2598" cy="230.687" width="42.52" height="14.1732"/>
			<rect x="0" y="223.6" width="42.5197" height="14.1732" class="st5"/>
			<text x="9.09" y="234.29" class="st6" v:langID="1043"><v:paragraph v:horizAlign="1"/><v:tabList/>10 m</text>		</g>
		<g id="shape543-299" v:mID="543" v:groupContext="shape" transform="translate(179.363,24.7275) rotate(-26.5651)">
			<title>Blad.543</title>
			<desc>6 m</desc>
			<v:textBlock v:margins="rect(4,4,4,4)" v:tabSpace="42.5197"/>
			<v:textRect cx="14.1732" cy="230.687" width="28.35" height="14.1732"/>
			<rect x="0" y="223.6" width="28.3465" height="14.1732" class="st5"/>
			<text x="5.01" y="234.29" class="st6" v:langID="1043"><v:paragraph v:horizAlign="1"/><v:tabList/>6 m</text>		</g>
		<g id="shape544-302" v:mID="544" v:groupContext="shape" transform="translate(393.379,289.005) rotate(153.435)">
			<title>Blad.544</title>
			<path d="M0 237.77 L4.25 237.77" class="st2"/>
		</g>
		<g id="shape545-305" v:mID="545" v:groupContext="shape" transform="translate(429.707,-113.884) rotate(36.8699)">
			<title>Blad.545</title>
			<path d="M3.74 237.77 L4.1 237.77 L45.51 237.77" class="st3"/>
		</g>
		<g id="shape546-312" v:mID="546" v:groupContext="shape" transform="translate(420.834,-103.057) rotate(36.8699)">
			<title>Blad.546</title>
			<desc>17.5 m</desc>
			<v:textBlock v:margins="rect(4,4,4,4)" v:tabSpace="42.5197"/>
			<v:textRect cx="24.8032" cy="230.687" width="49.61" height="14.1732"/>
			<rect x="0" y="223.6" width="49.6063" height="14.1732" class="st5"/>
			<text x="8.14" y="234.29" class="st6" v:langID="1043"><v:paragraph v:horizAlign="1"/><v:tabList/>17.5 m</text>		</g>
		<g id="group547-315" transform="translate(329.299,-178.958)" v:mID="547" v:groupContext="group">
			<title>Inklemming 3D.547</title>
			<g id="shape548-316" v:mID="548" v:groupContext="shape" transform="translate(258.901,209.427) rotate(90)">
				<title>Blad.548</title>
				<path d="M0 237.77 L28.35 237.77" class="st7"/>
			</g>
			<g id="shape549-319" v:mID="549" v:groupContext="shape" transform="translate(177.92,32.7916) rotate(44.9999)">
				<title>Blad.549</title>
				<path d="M0 237.77 L16.04 237.77" class="st8"/>
			</g>
			<g id="shape550-322" v:mID="550" v:groupContext="shape" transform="translate(177.921,35.6265) rotate(45)">
				<title>Blad.550</title>
				<path d="M0 237.77 L16.04 237.77" class="st8"/>
			</g>
			<g id="shape551-325" v:mID="551" v:groupContext="shape" transform="translate(177.921,38.4611) rotate(45)">
				<title>Blad.551</title>
				<path d="M0 237.77 L16.04 237.77" class="st8"/>
			</g>
			<g id="shape552-328" v:mID="552" v:groupContext="shape" transform="translate(177.921,41.2957) rotate(45)">
				<title>Blad.552</title>
				<path d="M0 237.77 L16.04 237.77" class="st8"/>
			</g>
			<g id="shape553-331" v:mID="553" v:groupContext="shape" transform="translate(177.921,44.1304) rotate(45)">
				<title>Blad.553</title>
				<path d="M0 237.77 L16.04 237.77" class="st8"/>
			</g>
			<g id="shape554-334" v:mID="554" v:groupContext="shape" transform="translate(187.37,56.4138) rotate(45)">
				<title>Blad.554</title>
				<path d="M0 237.77 L2.67 237.77" class="st8"/>
			</g>
			<g id="shape555-337" v:mID="555" v:groupContext="shape" transform="translate(185.48,57.3587) rotate(45)">
				<title>Blad.555</title>
				<path d="M0 237.77 L5.35 237.77" class="st8"/>
			</g>
			<g id="shape556-340" v:mID="556" v:groupContext="shape" transform="translate(183.59,58.3036) rotate(45)">
				<title>Blad.556</title>
				<path d="M0 237.77 L8.02 237.77" class="st8"/>
			</g>
			<g id="shape557-343" v:mID="557" v:groupContext="shape" transform="translate(180.866,58.489) rotate(44.7325)">
				<title>Blad.557</title>
				<path d="M0 237.77 L10.71 237.77" class="st8"/>
			</g>
			<g id="shape558-346" v:mID="558" v:groupContext="shape" transform="translate(179.811,60.1934) rotate(45)">
				<title>Blad.558</title>
				<path d="M0 237.77 L13.36 237.77" class="st8"/>
			</g>
			<g id="shape559-349" v:mID="559" v:groupContext="shape" transform="translate(140.141,429.932) rotate(153.435)">
				<title>Blad.559</title>
				<path d="M0 237.77 L28.35 237.77" class="st7"/>
			</g>
			<g id="shape560-352" v:mID="560" v:groupContext="shape" transform="translate(257.686,291.184) rotate(108.435)">
				<title>Blad.560</title>
				<path d="M0 237.77 L2.67 237.77" class="st8"/>
			</g>
			<g id="shape561-355" v:mID="561" v:groupContext="shape" transform="translate(255.996,289.917) rotate(108.435)">
				<title>Blad.561</title>
				<path d="M0 237.77 L5.35 237.77" class="st8"/>
			</g>
			<g id="shape562-358" v:mID="562" v:groupContext="shape" transform="translate(254.306,288.649) rotate(108.435)">
				<title>Blad.562</title>
				<path d="M0 237.77 L8.02 237.77" class="st8"/>
			</g>
			<g id="shape563-361" v:mID="563" v:groupContext="shape" transform="translate(252.616,287.381) rotate(108.435)">
				<title>Blad.563</title>
				<path d="M0 237.77 L10.69 237.77" class="st8"/>
			</g>
			<g id="shape564-364" v:mID="564" v:groupContext="shape" transform="translate(250.925,286.113) rotate(108.435)">
				<title>Blad.564</title>
				<path d="M0 237.77 L13.36 237.77" class="st8"/>
			</g>
			<g id="shape565-367" v:mID="565" v:groupContext="shape" transform="translate(249.235,284.846) rotate(108.435)">
				<title>Blad.565</title>
				<path d="M0 237.77 L7.12 237.77" class="st8"/>
			</g>
			<g id="shape566-370" v:mID="566" v:groupContext="shape" transform="translate(243.319,296.255) rotate(108.435)">
				<title>Blad.566</title>
				<path d="M0 237.77 L5.35 237.77" class="st8"/>
			</g>
			<g id="shape567-373" v:mID="567" v:groupContext="shape" transform="translate(241.629,294.987) rotate(108.435)">
				<title>Blad.567</title>
				<path d="M0 237.77 L8.02 237.77" class="st8"/>
			</g>
			<g id="shape568-376" v:mID="568" v:groupContext="shape" transform="translate(239.939,293.72) rotate(108.435)">
				<title>Blad.568</title>
				<path d="M0 237.77 L10.69 237.77" class="st8"/>
			</g>
			<g id="shape569-379" v:mID="569" v:groupContext="shape" transform="translate(238.249,292.452) rotate(108.435)">
				<title>Blad.569</title>
				<path d="M0 237.77 L13.36 237.77" class="st8"/>
			</g>
			<g id="shape570-382" v:mID="570" v:groupContext="shape" transform="translate(236.558,291.184) rotate(108.435)">
				<title>Blad.570</title>
				<path d="M0 237.77 L13.36 237.77" class="st8"/>
			</g>
			<g id="shape571-385" v:mID="571" v:groupContext="shape" transform="translate(234.023,292.452) rotate(108.435)">
				<title>Blad.571</title>
				<path d="M0 237.77 L10.69 237.77" class="st8"/>
			</g>
			<g id="shape572-388" v:mID="572" v:groupContext="shape" transform="translate(231.487,293.72) rotate(108.435)">
				<title>Blad.572</title>
				<path d="M0 237.77 L8.02 237.77" class="st8"/>
			</g>
			<g id="shape573-391" v:mID="573" v:groupContext="shape" transform="translate(228.952,294.987) rotate(108.435)">
				<title>Blad.573</title>
				<path d="M0 237.77 L5.35 237.77" class="st8"/>
			</g>
			<g id="shape574-394" v:mID="574" v:groupContext="shape" transform="translate(226.417,296.255) rotate(108.435)">
				<title>Blad.574</title>
				<path d="M0 237.77 L2.67 237.77" class="st8"/>
			</g>
			<g id="shape575-397" v:mID="575" v:groupContext="shape" transform="translate(245.01,297.523) rotate(108.435)">
				<title>Blad.575</title>
				<path d="M0 237.77 L2.67 237.77" class="st8"/>
			</g>
		</g>
		<g id="shape576-400" v:mID="576" v:groupContext="shape" transform="translate(493.118,-145.576) rotate(36.8699)">
			<title>Ligger, 2 pt.576</title>
			<path d="M0 237.77 L49.61 237.77" class="st9"/>
		</g>
		<g id="shape577-403" v:mID="577" v:groupContext="shape" transform="translate(532.803,-115.813) rotate(36.8699)">
			<title>Ligger, 2 pt.577</title>
			<path d="M0 237.77 L74.41 237.77" class="st9"/>
		</g>
		<g id="shape578-406" v:mID="578" v:groupContext="shape" transform="translate(592.33,-71.1669) rotate(36.8699)">
			<title>Ligger, 2 pt.578</title>
			<path d="M0 237.77 L74.41 237.77" class="st9"/>
		</g>
		<g id="shape579-409" v:mID="579" v:groupContext="shape" transform="translate(651.858,-26.5212) rotate(36.8699)">
			<title>Ligger, 2 pt.579</title>
			<path d="M0 237.77 L28.35 237.77" class="st9"/>
		</g>
		<g id="group580-412" transform="translate(350.454,-143.525)" v:mID="580" v:groupContext="group">
			<title>z-as.580</title>
			<g id="shape581-413" v:mID="581" v:groupContext="shape" transform="translate(237.773,209.427) rotate(90)">
				<title>Blad.581</title>
				<path d="M0 237.77 L22.62 237.77" class="st10"/>
			</g>
			<g id="shape582-418" v:mID="582" v:groupContext="shape">
				<title>Blad.582</title>
				<desc>z</desc>
				<v:textBlock v:margins="rect(4,4,4,4)" v:tabSpace="42.5197"/>
				<v:textRect cx="7.08661" cy="230.687" width="14.18" height="14.1732"/>
				<rect x="0" y="223.6" width="14.1732" height="14.1732" class="st5"/>
				<text x="4.75" y="234.29" class="st12" v:langID="1043"><v:paragraph v:horizAlign="1"/><v:tabList/>z</text>			</g>
		</g>
		<g id="shape583-421" v:mID="583" v:groupContext="shape" transform="translate(685.874,-1.00937) rotate(36.8699)">
			<title>Blad.583</title>
			<path d="M0 237.77 L22.62 237.77" class="st10"/>
		</g>
		<g id="shape584-426" v:mID="584" v:groupContext="shape" transform="translate(548.879,-23.0522)">
			<title>Blad.584</title>
			<desc>x</desc>
			<v:textBlock v:margins="rect(4,4,4,4)" v:tabSpace="42.5197"/>
			<v:textRect cx="7.08661" cy="230.687" width="14.18" height="14.1732"/>
			<rect x="0" y="223.6" width="14.1732" height="14.1732" class="st5"/>
			<text x="4.42" y="234.29" class="st12" v:langID="1043"><v:paragraph v:horizAlign="1"/><v:tabList/>x</text>		</g>
		<g id="shape586-429" v:mID="586" v:groupContext="shape" transform="translate(380.218,-214.391)">
			<title>z-as.586</title>
			<desc>y</desc>
			<v:textBlock v:margins="rect(4,4,4,4)" v:tabSpace="42.5197"/>
			<v:textRect cx="7.08661" cy="230.687" width="14.18" height="14.1732"/>
			<rect x="0" y="223.6" width="14.1732" height="14.1732" class="st5"/>
			<text x="4.42" y="234.29" class="st12" v:langID="1043"><v:paragraph v:horizAlign="1"/><v:tabList/>y</text>		</g>
		<g id="shape587-432" v:mID="587" v:groupContext="shape" transform="translate(588.227,30.4691) rotate(90)">
			<title>Kracht.587</title>
			<path d="M0 237.77 L9.55 237.77" class="st13"/>
		</g>
		<g id="shape588-437" v:mID="588" v:groupContext="shape" transform="translate(493.078,-159.759) rotate(36.8659)">
			<title>Blad.588</title>
			<path d="M0 237.77 L226.79 237.77" class="st15"/>
		</g>
		<g id="shape589-440" v:mID="589" v:groupContext="shape" transform="translate(624.511,57.6817) rotate(90)">
			<title>Kracht.589</title>
			<path d="M0 237.77 L9.55 237.77" class="st13"/>
		</g>
		<g id="shape590-445" v:mID="590" v:groupContext="shape" transform="translate(660.794,84.8943) rotate(90)">
			<title>Kracht.590</title>
			<path d="M0 237.77 L9.55 237.77" class="st13"/>
		</g>
		<g id="shape591-450" v:mID="591" v:groupContext="shape" transform="translate(769.644,166.532) rotate(90)">
			<title>Kracht.591</title>
			<path d="M0 237.77 L9.55 237.77" class="st13"/>
		</g>
		<g id="shape592-455" v:mID="592" v:groupContext="shape" transform="translate(697.078,112.107) rotate(90)">
			<title>Kracht.592</title>
			<path d="M0 237.77 L9.55 237.77" class="st13"/>
		</g>
		<g id="shape594-460" v:mID="594" v:groupContext="shape" transform="translate(733.361,139.319) rotate(90)">
			<title>Kracht.594</title>
			<path d="M0 237.77 L9.55 237.77" class="st13"/>
		</g>
		<g id="shape595-465" v:mID="595" v:groupContext="shape" transform="translate(513.999,-148.93) rotate(36.8699)">
			<title>Kracht.595</title>
			<path d="M7.55 237.77 L7.91 237.77 L42.52 237.77" class="st16"/>
		</g>
		<g id="shape597-470" v:mID="597" v:groupContext="shape" transform="translate(643.124,10.107) rotate(90)">
			<title>Kracht.597</title>
			<path d="M7.55 237.77 L7.91 237.77 L56.69 237.77" class="st16"/>
		</g>
		<g id="shape599-475" v:mID="599" v:groupContext="shape" transform="translate(573.527,-104.285) rotate(36.8699)">
			<title>Kracht.599</title>
			<path d="M7.55 237.77 L7.91 237.77 L42.52 237.77" class="st16"/>
		</g>
		<g id="shape600-480" v:mID="600" v:groupContext="shape" transform="translate(702.652,54.7527) rotate(90)">
			<title>Kracht.600</title>
			<path d="M7.55 237.77 L7.91 237.77 L56.69 237.77" class="st16"/>
		</g>
		<g id="shape602-485" v:mID="602" v:groupContext="shape" transform="translate(633.055,-59.6392) rotate(36.8699)">
			<title>Kracht.602</title>
			<path d="M7.55 237.77 L7.91 237.77 L42.52 237.77" class="st16"/>
		</g>
		<g id="shape603-490" v:mID="603" v:groupContext="shape" transform="translate(762.18,99.3984) rotate(90)">
			<title>Kracht.603</title>
			<path d="M7.55 237.77 L7.91 237.77 L56.69 237.77" class="st16"/>
		</g>
		<g id="shape604-495" v:mID="604" v:groupContext="shape" transform="translate(469.392,-84.1202) rotate(36.8699)">
			<title>Blad.604</title>
			<path d="M3.74 237.77 L4.1 237.77 L70.31 237.77" class="st3"/>
		</g>
		<g id="shape605-502" v:mID="605" v:groupContext="shape" transform="translate(528.919,-39.4745) rotate(36.8699)">
			<title>Blad.605</title>
			<path d="M3.74 237.77 L4.1 237.77 L70.31 237.77" class="st3"/>
		</g>
		<g id="shape606-509" v:mID="606" v:groupContext="shape" transform="translate(588.447,5.17118) rotate(36.8699)">
			<title>Blad.606</title>
			<path d="M3.74 237.77 L4.1 237.77 L24.25 237.77" class="st3"/>
		</g>
		<g id="shape607-516" v:mID="607" v:groupContext="shape" transform="translate(698.773,419.786) rotate(153.435)">
			<title>Blad.607</title>
			<path d="M3.74 237.77 L4.1 237.77 L12.91 237.77" class="st3"/>
		</g>
		<g id="shape608-523" v:mID="608" v:groupContext="shape" transform="translate(433.064,318.769) rotate(153.435)">
			<title>Blad.608</title>
			<path d="M0 237.77 L4.25 237.77" class="st2"/>
		</g>
		<g id="shape609-526" v:mID="609" v:groupContext="shape" transform="translate(436.867,316.868) rotate(153.435)">
			<title>Blad.609</title>
			<path d="M0 237.77 L4.25 237.77" class="st2"/>
		</g>
		<g id="shape610-529" v:mID="610" v:groupContext="shape" transform="translate(397.182,287.104) rotate(153.435)">
			<title>Blad.610</title>
			<path d="M0 237.77 L4.25 237.77" class="st2"/>
		</g>
		<g id="shape611-532" v:mID="611" v:groupContext="shape" transform="translate(496.394,361.513) rotate(153.435)">
			<title>Blad.611</title>
			<path d="M0 237.77 L4.25 237.77" class="st2"/>
		</g>
		<g id="shape612-535" v:mID="612" v:groupContext="shape" transform="translate(492.591,363.415) rotate(153.435)">
			<title>Blad.612</title>
			<path d="M0 237.77 L4.25 237.77" class="st2"/>
		</g>
		<g id="shape613-538" v:mID="613" v:groupContext="shape" transform="translate(555.922,406.159) rotate(153.435)">
			<title>Blad.613</title>
			<path d="M0 237.77 L4.25 237.77" class="st2"/>
		</g>
		<g id="shape614-541" v:mID="614" v:groupContext="shape" transform="translate(552.119,408.061) rotate(153.435)">
			<title>Blad.614</title>
			<path d="M0 237.77 L4.25 237.77" class="st2"/>
		</g>
		<g id="shape615-544" v:mID="615" v:groupContext="shape" transform="translate(578.599,423.167) rotate(153.435)">
			<title>Blad.615</title>
			<path d="M0 237.77 L4.25 237.77" class="st2"/>
		</g>
		<g id="shape616-547" v:mID="616" v:groupContext="shape" transform="translate(574.796,425.068) rotate(153.435)">
			<title>Blad.616</title>
			<path d="M0 237.77 L4.25 237.77" class="st2"/>
		</g>
		<g id="shape617-550" v:mID="617" v:groupContext="shape" transform="translate(719.889,24.5024) rotate(36.8699)">
			<title>Blad.617</title>
			<path d="M0 237.77 L4.25 237.77" class="st2"/>
		</g>
		<g id="shape618-553" v:mID="618" v:groupContext="shape" transform="translate(716.488,21.9513) rotate(36.8699)">
			<title>Blad.618</title>
			<path d="M0 237.77 L4.25 237.77" class="st2"/>
		</g>
		<g id="shape619-556" v:mID="619" v:groupContext="shape" transform="translate(731.7,14.3451) rotate(36.8699)">
			<title>Blad.619</title>
			<path d="M0 237.77 L4.25 237.77" class="st2"/>
		</g>
		<g id="shape620-559" v:mID="620" v:groupContext="shape" transform="translate(735.102,16.8963) rotate(36.8699)">
			<title>Blad.620</title>
			<path d="M0 237.77 L4.25 237.77" class="st2"/>
		</g>
		<g id="shape621-562" v:mID="621" v:groupContext="shape" transform="translate(460.803,-72.8676) rotate(36.8699)">
			<title>Blad.621</title>
			<desc>26.25 m</desc>
			<v:textBlock v:margins="rect(4,4,4,4)" v:tabSpace="42.5197"/>
			<v:textRect cx="37.2047" cy="230.687" width="74.41" height="14.1732"/>
			<rect x="0" y="223.6" width="74.4094" height="14.1732" class="st5"/>
			<text x="17.54" y="234.29" class="st6" v:langID="1043"><v:paragraph v:horizAlign="1"/><v:tabList/>26.25 m</text>		</g>
		<g id="shape622-565" v:mID="622" v:groupContext="shape" transform="translate(519.763,-28.2219) rotate(36.8699)">
			<title>Blad.622</title>
			<desc>26.25 m</desc>
			<v:textBlock v:margins="rect(4,4,4,4)" v:tabSpace="42.5197"/>
			<v:textRect cx="37.2047" cy="230.687" width="74.41" height="14.1732"/>
			<rect x="0" y="223.6" width="74.4094" height="14.1732" class="st5"/>
			<text x="17.54" y="234.29" class="st6" v:langID="1043"><v:paragraph v:horizAlign="1"/><v:tabList/>26.25 m</text>		</g>
		<g id="shape623-568" v:mID="623" v:groupContext="shape" transform="translate(573.338,11.4631) rotate(36.8699)">
			<title>Blad.623</title>
			<desc>10 m</desc>
			<v:textBlock v:margins="rect(4,4,4,4)" v:tabSpace="42.5197"/>
			<v:textRect cx="21.2598" cy="230.687" width="42.52" height="14.1732"/>
			<rect x="0" y="223.6" width="42.5197" height="14.1732" class="st5"/>
			<text x="9.09" y="234.29" class="st6" v:langID="1043"><v:paragraph v:horizAlign="1"/><v:tabList/>10 m</text>		</g>
		<g id="shape624-571" v:mID="624" v:groupContext="shape" transform="translate(472.465,17.5619) rotate(-26.5651)">
			<title>Blad.624</title>
			<desc>6 m</desc>
			<v:textBlock v:margins="rect(4,4,4,4)" v:tabSpace="42.5197"/>
			<v:textRect cx="14.1732" cy="230.687" width="28.35" height="14.1732"/>
			<rect x="0" y="223.6" width="28.3465" height="14.1732" class="st5"/>
			<text x="5.01" y="234.29" class="st6" v:langID="1043"><v:paragraph v:horizAlign="1"/><v:tabList/>6 m</text>		</g>
		<g id="shape625-574" v:mID="625" v:groupContext="shape" transform="translate(269.446,-180.705) rotate(-26.5651)">
			<title>Blad.625</title>
			<path d="M0 237.77 L22.62 237.77" class="st10"/>
		</g>
		<g id="shape626-579" v:mID="626" v:groupContext="shape" transform="translate(129.351,-207.304)">
			<title>Blad.626</title>
			<desc>Optie 1</desc>
			<v:textBlock v:margins="rect(4,4,4,4)" v:tabSpace="42.5197"/>
			<v:textRect cx="42.5197" cy="230.687" width="85.04" height="14.1732"/>
			<rect x="0" y="223.6" width="85.0394" height="14.1732" class="st5"/>
			<text x="24.69" y="234.29" class="st6" v:langID="1043"><v:paragraph v:horizAlign="1"/><v:tabList/>Optie 1</text>		</g>
		<g id="shape627-582" v:mID="627" v:groupContext="shape" transform="translate(441.162,-207.304)">
			<title>Blad.627</title>
			<desc>Optie 2</desc>
			<v:textBlock v:margins="rect(4,4,4,4)" v:tabSpace="42.5197"/>
			<v:textRect cx="42.5197" cy="230.687" width="85.04" height="14.1732"/>
			<rect x="0" y="223.6" width="85.0394" height="14.1732" class="st5"/>
			<text x="24.69" y="234.29" class="st6" v:langID="1043"><v:paragraph v:horizAlign="1"/><v:tabList/>Optie 2</text>		</g>
	</g>
</svg>
