<?xml version="1.0" encoding="UTF-8" standalone="no"?>
<!DOCTYPE svg PUBLIC "-//W3C//DTD SVG 1.1//EN" "http://www.w3.org/Graphics/SVG/1.1/DTD/svg11.dtd">
<!-- Gegenereerd door Microsoft Visio, SVG Export constructie.svg Pagina-1 -->
<svg xmlns="http://www.w3.org/2000/svg" xmlns:xlink="http://www.w3.org/1999/xlink" xmlns:ev="http://www.w3.org/2001/xml-events"
		xmlns:v="http://schemas.microsoft.com/visio/2003/SVGExtensions/" width="4.43393in" height="3.35333in"
		viewBox="0 0 319.243 241.44" xml:space="preserve" color-interpolation-filters="sRGB" class="st20">
	<v:documentProperties v:langID="1043" v:metric="true" v:viewMarkup="false"/>

	<style type="text/css">
	<![CDATA[
		.st1 {fill:#a5a5a5;stroke:none;stroke-linecap:round;stroke-linejoin:round;stroke-width:0.75}
		.st2 {stroke:#000000;stroke-linecap:round;stroke-linejoin:round;stroke-width:1.2}
		.st3 {stroke:#000000;stroke-linecap:round;stroke-linejoin:round;stroke-width:0.75}
		.st4 {stroke:#000000;stroke-linecap:round;stroke-linejoin:round;stroke-width:2}
		.st5 {marker-start:url(#mrkr5-59);stroke:#800000;stroke-linecap:round;stroke-linejoin:round;stroke-width:2}
		.st6 {fill:#800000;fill-opacity:1;stroke:#800000;stroke-opacity:1;stroke-width:0.44247787610619}
		.st7 {fill:none;stroke:none;stroke-linecap:round;stroke-linejoin:round;stroke-width:0.24}
		.st8 {fill:#000000;font-family:Times New Roman;font-size:1.00001em}
		.st9 {marker-end:url(#mrkr5-72);stroke:#800000;stroke-linecap:round;stroke-linejoin:round;stroke-width:1.2}
		.st10 {fill:#800000;fill-opacity:1;stroke:#800000;stroke-opacity:1;stroke-width:0.45454545454546}
		.st11 {stroke:#800000;stroke-linecap:round;stroke-linejoin:round;stroke-width:1.2}
		.st12 {marker-start:url(#mrkr39-106);stroke:#800000;stroke-linecap:round;stroke-linejoin:round;stroke-width:2}
		.st13 {marker-end:url(#mrkr5-120);stroke:#000000;stroke-linecap:round;stroke-linejoin:round;stroke-width:0.75}
		.st14 {fill:#000000;fill-opacity:1;stroke:#000000;stroke-opacity:1;stroke-width:0.22935779816514}
		.st15 {fill:none;stroke:none;stroke-linecap:round;stroke-linejoin:round;stroke-width:0.75}
		.st16 {fill:#000000;font-family:Times New Roman;font-size:1.00001em;font-style:italic}
		.st17 {stroke:#000000;stroke-linecap:round;stroke-linejoin:round;stroke-width:0.25}
		.st18 {marker-end:url(#mrkr4-149);marker-start:url(#mrkr4-147);stroke:#000000;stroke-linecap:round;stroke-linejoin:round;stroke-width:0.25}
		.st19 {fill:#000000;fill-opacity:1;stroke:#000000;stroke-opacity:1;stroke-width:0.1219512195122}
		.st20 {fill:none;fill-rule:evenodd;font-size:12px;overflow:visible;stroke-linecap:square;stroke-miterlimit:3}
	]]>
	</style>

	<defs id="Markers">
		<g id="lend5">
			<path d="M 2 1 L 0 0 L 1.98117 -0.993387 C 1.67173 -0.364515 1.67301 0.372641 1.98465 1.00043 " style="stroke:none"/>
		</g>
		<marker id="mrkr5-59" class="st6" v:arrowType="5" v:arrowSize="2" v:setback="3.775" refX="3.775" orient="auto"
				markerUnits="strokeWidth" overflow="visible">
			<use xlink:href="#lend5" transform="scale(2.26) "/>
		</marker>
		<marker id="mrkr5-72" class="st10" v:arrowType="5" v:arrowSize="0" v:setback="3.85" refX="-3.85" orient="auto"
				markerUnits="strokeWidth" overflow="visible">
			<use xlink:href="#lend5" transform="scale(-2.2,-2.2) "/>
		</marker>
		<g id="lend39">
			<path d="M 0 0 L 2 -1 L 2 1 L 0 0 M 2 0 L 4 -1 L 4 1 L 2 0 " style="stroke:none"/>
		</g>
		<marker id="mrkr39-106" class="st6" v:arrowType="39" v:arrowSize="2" v:setback="8.86" refX="8.86" orient="auto"
				markerUnits="strokeWidth" overflow="visible">
			<use xlink:href="#lend39" transform="scale(2.26) "/>
		</marker>
		<marker id="mrkr5-120" class="st14" v:arrowType="5" v:arrowSize="2" v:setback="7.63" refX="-7.63" orient="auto"
				markerUnits="strokeWidth" overflow="visible">
			<use xlink:href="#lend5" transform="scale(-4.36,-4.36) "/>
		</marker>
		<g id="lend4">
			<path d="M 2 1 L 0 0 L 2 -1 L 2 1 " style="stroke:none"/>
		</g>
		<marker id="mrkr4-147" class="st19" v:arrowType="4" v:arrowSize="1" v:setback="14.96" refX="14.96" orient="auto"
				markerUnits="strokeWidth" overflow="visible">
			<use xlink:href="#lend4" transform="scale(8.2) "/>
		</marker>
		<marker id="mrkr4-149" class="st19" v:arrowType="4" v:arrowSize="1" v:setback="16.4" refX="-16.4" orient="auto"
				markerUnits="strokeWidth" overflow="visible">
			<use xlink:href="#lend4" transform="scale(-8.2,-8.2) "/>
		</marker>
	</defs>
	<g v:mID="0" v:index="1" v:groupContext="foregroundPage">
		<title>Pagina-1</title>
		<v:pageProperties v:drawingScale="0.0393701" v:pageScale="0.0393701" v:drawingUnits="24" v:shadowOffsetX="8.50394"
				v:shadowOffsetY="-8.50394"/>
		<g id="shape1935-1" v:mID="1935" v:groupContext="shape" transform="translate(127.526,395.404) scale(1,-1)">
			<title>Blad.1935</title>
			<path d="M85.04 241.44 C85.04 237.19 85.09 232.77 86.91 230.66 C92.87 223.75 117.83 241.6 120.4 239.21 C123.41 236.4
						 95.68 205.77 83.34 196.87 C69.82 187.12 74.77 203.47 72.23 213.97 C65.15 243.23 -0 227.27 0 241.44 L85.04
						 241.44 Z" class="st1"/>
		</g>
		<g id="shape1934-3" v:mID="1934" v:groupContext="shape" transform="translate(127.679,-85.4144)">
			<title>Blad.1934</title>
			<path d="M85.04 241.44 C85.04 237.19 85.09 232.77 86.91 230.66 C92.87 223.75 117.83 241.6 120.4 239.21 C123.41 236.4
						 95.68 205.77 83.34 196.87 C69.82 187.12 74.77 203.47 72.23 213.97 C65.15 243.23 -0 227.27 0 241.44 L85.04
						 241.44 Z" class="st1"/>
		</g>
		<g id="group177-5" transform="translate(280.75,255.733) rotate(180)" v:mID="177" v:groupContext="group">
			<title>Inklemming.177</title>
			<g id="shape178-6" v:mID="178" v:groupContext="shape" transform="translate(252.778,213.093) rotate(90)">
				<title>Blad.178</title>
				<path d="M0 241.44 L28.35 241.44" class="st2"/>
			</g>
			<g id="shape179-9" v:mID="179" v:groupContext="shape" transform="translate(179.228,42.3696) rotate(45)">
				<title>Blad.179</title>
				<path d="M0 241.44 L4.01 241.44" class="st3"/>
			</g>
			<g id="shape180-12" v:mID="180" v:groupContext="shape" transform="translate(176.393,42.3696) rotate(45)">
				<title>Blad.180</title>
				<path d="M0 241.44 L8.02 241.44" class="st3"/>
			</g>
			<g id="shape181-15" v:mID="181" v:groupContext="shape" transform="translate(173.558,42.3696) rotate(45)">
				<title>Blad.181</title>
				<path d="M0 241.44 L12.03 241.44" class="st3"/>
			</g>
			<g id="shape182-18" v:mID="182" v:groupContext="shape" transform="translate(170.724,42.3696) rotate(45)">
				<title>Blad.182</title>
				<path d="M0 241.44 L16.04 241.44" class="st3"/>
			</g>
			<g id="shape183-21" v:mID="183" v:groupContext="shape" transform="translate(170.724,45.2043) rotate(45)">
				<title>Blad.183</title>
				<path d="M0 241.44 L16.04 241.44" class="st3"/>
			</g>
			<g id="shape184-24" v:mID="184" v:groupContext="shape" transform="translate(170.724,48.0389) rotate(45)">
				<title>Blad.184</title>
				<path d="M0 241.44 L16.04 241.44" class="st3"/>
			</g>
			<g id="shape185-27" v:mID="185" v:groupContext="shape" transform="translate(170.724,50.8736) rotate(45)">
				<title>Blad.185</title>
				<path d="M0 241.44 L16.04 241.44" class="st3"/>
			</g>
			<g id="shape186-30" v:mID="186" v:groupContext="shape" transform="translate(170.724,53.7082) rotate(45)">
				<title>Blad.186</title>
				<path d="M0 241.44 L16.04 241.44" class="st3"/>
			</g>
			<g id="shape187-33" v:mID="187" v:groupContext="shape" transform="translate(170.724,56.5429) rotate(45)">
				<title>Blad.187</title>
				<path d="M0 241.44 L16.04 241.44" class="st3"/>
			</g>
			<g id="shape188-36" v:mID="188" v:groupContext="shape" transform="translate(170.724,59.3775) rotate(45)">
				<title>Blad.188</title>
				<path d="M0 241.44 L16.04 241.44" class="st3"/>
			</g>
			<g id="shape189-39" v:mID="189" v:groupContext="shape" transform="translate(170.724,62.2122) rotate(45)">
				<title>Blad.189</title>
				<path d="M0 241.44 L12.03 241.44" class="st3"/>
			</g>
			<g id="shape190-42" v:mID="190" v:groupContext="shape" transform="translate(170.724,65.0468) rotate(45)">
				<title>Blad.190</title>
				<path d="M0 241.44 L8.02 241.44" class="st3"/>
			</g>
			<g id="shape191-45" v:mID="191" v:groupContext="shape" transform="translate(170.724,67.8815) rotate(45)">
				<title>Blad.191</title>
				<path d="M0 241.44 L4.01 241.44" class="st3"/>
			</g>
		</g>
		<g id="shape192-48" v:mID="192" v:groupContext="shape" transform="translate(156.026,-212.973)">
			<title>Ligger, 2 pt.192</title>
			<path d="M0 241.44 L113.39 241.44" class="st4"/>
		</g>
		<g id="shape193-51" v:mID="193" v:groupContext="shape" transform="translate(42.6397,-212.973)">
			<title>Ligger, 2 pt.193</title>
			<path d="M0 241.44 L113.39 241.44" class="st4"/>
		</g>
		<g id="shape194-54" v:mID="194" v:groupContext="shape" transform="translate(42.6397,269.906) rotate(180)">
			<title>Kracht.194</title>
			<path d="M7.55 241.44 L7.91 241.44 L28.35 241.44" class="st5"/>
		</g>
		<g id="shape195-60" v:mID="195" v:groupContext="shape" transform="translate(0.12,-220.06)">
			<title>A.195</title>
			<desc>30 kN</desc>
			<v:textBlock v:margins="rect(4,4,4,4)" v:tabSpace="42.5197"/>
			<v:textRect cx="21.2598" cy="234.353" width="42.52" height="14.1732"/>
			<rect x="0" y="227.267" width="42.5197" height="14.1732" class="st7"/>
			<text x="6.43" y="237.95" class="st8" v:langID="1043"><v:paragraph v:horizAlign="1"/><v:tabList/>30 kN</text>		</g>
		<g id="group204-63" transform="translate(42.6397,-212.973)" v:mID="204" v:groupContext="group">
			<title>qz-last constant.204</title>
			<g id="shape205-64" v:mID="205" v:groupContext="shape" transform="translate(0,-14.1732)">
				<title>A.58</title>
				<desc>250 N/m</desc>
				<v:textBlock v:margins="rect(4,4,4,4)" v:tabSpace="42.5197"/>
				<v:textRect cx="113.386" cy="234.353" width="226.78" height="14.1732"/>
				<rect x="0" y="227.267" width="226.772" height="14.1732" class="st7"/>
				<text x="92.22" y="237.95" class="st8" v:langID="1043"><v:paragraph v:horizAlign="1"/><v:tabList/>250 N/m</text>			</g>
			<g id="shape206-67" v:mID="206" v:groupContext="shape" transform="translate(241.44,227.267) rotate(90)">
				<title>Kracht.5</title>
				<path d="M0 241.44 L9.55 241.44" class="st9"/>
			</g>
			<g id="shape207-73" v:mID="207" v:groupContext="shape" transform="translate(0,-14.1732)">
				<title>Blad.207</title>
				<path d="M0 241.44 L226.77 241.44" class="st11"/>
			</g>
			<g id="shape208-76" v:mID="208" v:groupContext="shape" transform="translate(286.794,227.267) rotate(90)">
				<title>Kracht.4</title>
				<path d="M0 241.44 L9.55 241.44" class="st9"/>
			</g>
			<g id="shape209-81" v:mID="209" v:groupContext="shape" transform="translate(332.149,227.267) rotate(90)">
				<title>Kracht.9</title>
				<path d="M0 241.44 L9.55 241.44" class="st9"/>
			</g>
			<g id="shape210-86" v:mID="210" v:groupContext="shape" transform="translate(468.212,227.267) rotate(90)">
				<title>Kracht.6</title>
				<path d="M0 241.44 L9.55 241.44" class="st9"/>
			</g>
			<g id="shape211-91" v:mID="211" v:groupContext="shape" transform="translate(422.857,227.267) rotate(90)">
				<title>Kracht.37</title>
				<path d="M0 241.44 L9.55 241.44" class="st9"/>
			</g>
			<g id="shape212-96" v:mID="212" v:groupContext="shape" transform="translate(377.503,227.267) rotate(90)">
				<title>Kracht.7</title>
				<path d="M0 241.44 L9.55 241.44" class="st9"/>
			</g>
		</g>
		<g id="shape213-101" v:mID="213" v:groupContext="shape" transform="translate(177.285,276.993) rotate(180)">
			<title>Wringend moment.213</title>
			<path d="M17.72 241.44 L18.08 241.44 L42.52 241.44" class="st12"/>
		</g>
		<g id="shape214-107" v:mID="214" v:groupContext="shape" transform="translate(397.465,25.6318) rotate(90)">
			<title>Blad.214</title>
			<path d="M0 241.44 L5.67 241.44" class="st3"/>
		</g>
		<g id="shape215-110" v:mID="215" v:groupContext="shape" transform="translate(127.679,-184.627)">
			<title>A.215</title>
			<desc>400 Nm</desc>
			<v:textBlock v:margins="rect(4,4,4,4)" v:tabSpace="42.5197"/>
			<v:textRect cx="28.3465" cy="234.353" width="56.7" height="14.1732"/>
			<rect x="0" y="227.267" width="56.6929" height="14.1732" class="st7"/>
			<text x="8.85" y="237.95" class="st8" v:langID="1043"><v:paragraph v:horizAlign="1"/><v:tabList/>400 Nm</text>		</g>
		<g id="group216-113" transform="translate(283.585,-198.8)" v:mID="216" v:groupContext="group">
			<title>x-as.216</title>
			<g id="shape217-114" v:mID="217" v:groupContext="shape" transform="translate(-2.75059E-12,-14.1732)">
				<title>Blad.217</title>
				<path d="M0 241.44 L22.62 241.44" class="st13"/>
			</g>
			<g id="shape218-121" v:mID="218" v:groupContext="shape" transform="translate(14.1732,0)">
				<title>Blad.218</title>
				<desc>x</desc>
				<v:textBlock v:margins="rect(4,4,4,4)" v:tabSpace="42.5197"/>
				<v:textRect cx="7.08661" cy="234.353" width="14.18" height="14.1732"/>
				<rect x="0" y="227.267" width="14.1732" height="14.1732" class="st15"/>
				<text x="4.42" y="237.95" class="st16" v:langID="1043"><v:paragraph v:horizAlign="1"/><v:tabList/>x</text>			</g>
		</g>
		<g id="group219-124" transform="translate(42.6397,-170.454)" v:mID="219" v:groupContext="group">
			<title>z-as.219</title>
			<g id="shape220-125" v:mID="220" v:groupContext="shape" transform="translate(241.44,213.093) rotate(90)">
				<title>Blad.220</title>
				<path d="M0 241.44 L22.62 241.44" class="st13"/>
			</g>
			<g id="shape221-130" v:mID="221" v:groupContext="shape">
				<title>Blad.221</title>
				<desc>z</desc>
				<v:textBlock v:margins="rect(4,4,4,4)" v:tabSpace="42.5197"/>
				<v:textRect cx="7.08661" cy="234.353" width="14.18" height="14.1732"/>
				<rect x="0" y="227.267" width="14.1732" height="14.1732" class="st15"/>
				<text x="4.75" y="237.95" class="st16" v:langID="1043"><v:paragraph v:horizAlign="1"/><v:tabList/>z</text>			</g>
		</g>
		<g id="group297-133" transform="translate(42.6397,-142.107)" v:mID="297" v:groupContext="group">
			<title>Maatlijn.297</title>
			<g id="group298-134" transform="translate(0,-9.92126)" v:mID="298" v:groupContext="group">
				<title>Maatlijn.31</title>
				<g id="shape299-135" v:mID="299" v:groupContext="shape" transform="translate(241.44,232.936) rotate(90)">
					<title>Blad.299</title>
					<path d="M0 241.44 L8.5 241.44" class="st17"/>
				</g>
				<g id="shape300-138" v:mID="300" v:groupContext="shape" transform="translate(354.826,232.936) rotate(90)">
					<title>Blad.300</title>
					<path d="M0 241.44 L8.5 241.44" class="st17"/>
				</g>
				<g id="shape301-141" v:mID="301" v:groupContext="shape" transform="translate(0,-4.25197)">
					<title>Blad.301</title>
					<path d="M3.74 241.44 L4.1 241.44 L109.29 241.44" class="st18"/>
				</g>
			</g>
			<g id="shape302-150" v:mID="302" v:groupContext="shape">
				<title>Blad.302</title>
				<desc>4 m</desc>
				<v:textBlock v:margins="rect(4,4,4,4)" v:tabSpace="42.5197"/>
				<v:textRect cx="56.6929" cy="234.353" width="113.39" height="14.1732"/>
				<rect x="0" y="227.267" width="113.386" height="14.1732" class="st15"/>
				<text x="47.53" y="237.95" class="st8" v:langID="1043"><v:paragraph v:horizAlign="1"/><v:tabList/>4 m</text>			</g>
		</g>
		<g id="group303-153" transform="translate(156.026,-142.107)" v:mID="303" v:groupContext="group">
			<title>Maatlijn.303</title>
			<g id="group304-154" transform="translate(0,-9.92126)" v:mID="304" v:groupContext="group">
				<title>Maatlijn.31</title>
				<g id="shape305-155" v:mID="305" v:groupContext="shape" transform="translate(241.44,232.936) rotate(90)">
					<title>Blad.305</title>
					<path d="M0 241.44 L8.5 241.44" class="st17"/>
				</g>
				<g id="shape306-158" v:mID="306" v:groupContext="shape" transform="translate(354.826,232.936) rotate(90)">
					<title>Blad.306</title>
					<path d="M0 241.44 L8.5 241.44" class="st17"/>
				</g>
				<g id="shape307-161" v:mID="307" v:groupContext="shape" transform="translate(0,-4.25197)">
					<title>Blad.307</title>
					<path d="M3.74 241.44 L4.1 241.44 L109.29 241.44" class="st18"/>
				</g>
			</g>
			<g id="shape308-168" v:mID="308" v:groupContext="shape">
				<title>Blad.308</title>
				<desc>4 m</desc>
				<v:textBlock v:margins="rect(4,4,4,4)" v:tabSpace="42.5197"/>
				<v:textRect cx="56.6929" cy="234.353" width="113.39" height="14.1732"/>
				<rect x="0" y="227.267" width="113.386" height="14.1732" class="st15"/>
				<text x="47.53" y="237.95" class="st8" v:langID="1043"><v:paragraph v:horizAlign="1"/><v:tabList/>4 m</text>			</g>
		</g>
		<g id="shape321-171" v:mID="321" v:groupContext="shape" transform="translate(35.5531,-198.8)">
			<title>Punt A.321</title>
			<desc>C</desc>
			<v:textBlock v:margins="rect(4,4,4,4)" v:tabSpace="42.5197"/>
			<v:textRect cx="7.08661" cy="234.353" width="14.18" height="14.1732"/>
			<rect x="0" y="227.267" width="14.1732" height="14.1732" class="st7"/>
			<text x="4" y="237.95" class="st8" v:langID="1043"><v:paragraph v:horizAlign="1"/><v:tabList/>C</text>		</g>
		<g id="shape322-174" v:mID="322" v:groupContext="shape" transform="translate(255.238,-198.8)">
			<title>Punt A.322</title>
			<desc>A</desc>
			<v:textBlock v:margins="rect(4,4,4,4)" v:tabSpace="42.5197"/>
			<v:textRect cx="7.08661" cy="234.353" width="14.18" height="14.1732"/>
			<rect x="0" y="227.267" width="14.1732" height="14.1732" class="st7"/>
			<text x="4" y="237.95" class="st8" v:langID="1043"><v:paragraph v:horizAlign="1"/><v:tabList/>A</text>		</g>
		<g id="group1910-177" transform="translate(211.716,383.292) rotate(180)" v:mID="1910" v:groupContext="group">
			<title>x-as.1910</title>
			<g id="shape1911-178" v:mID="1911" v:groupContext="shape" transform="translate(-2.75059E-12,-14.1732)">
				<title>Blad.1911</title>
				<path d="M0 241.44 L22.62 241.44" class="st13"/>
			</g>
			<g id="shape1912-183" v:mID="1912" v:groupContext="shape" transform="translate(28.3465,454.533) rotate(180)">
				<title>Blad.1912</title>
				<desc>y</desc>
				<v:textBlock v:margins="rect(4,4,4,4)" v:tabSpace="42.5197"/>
				<v:textRect cx="7.08661" cy="234.353" width="14.18" height="14.1732"/>
				<rect x="0" y="227.267" width="14.1732" height="14.1732" class="st15"/>
				<text x="4.42" y="237.95" class="st16" v:langID="1043"><v:paragraph v:horizAlign="1"/><v:tabList/>y</text>			</g>
		</g>
		<g id="group1913-186" transform="translate(212.718,-42.8947)" v:mID="1913" v:groupContext="group">
			<title>z-as.1913</title>
			<g id="shape1914-187" v:mID="1914" v:groupContext="shape" transform="translate(241.44,198.92) rotate(90)">
				<title>Blad.1914</title>
				<path d="M0 241.44 L36.8 241.44" class="st13"/>
			</g>
			<g id="shape1915-192" v:mID="1915" v:groupContext="shape">
				<title>Blad.1915</title>
				<desc>z</desc>
				<v:textBlock v:margins="rect(4,4,4,4)" v:tabSpace="42.5197"/>
				<v:textRect cx="7.08661" cy="230.81" width="14.18" height="21.2598"/>
				<rect x="0" y="220.18" width="14.1732" height="21.2598" class="st15"/>
				<text x="4.75" y="234.41" class="st16" v:langID="1043"><v:paragraph v:horizAlign="1"/><v:tabList/>z</text>			</g>
		</g>
		<g id="shape1916-195" v:mID="1916" v:groupContext="shape" transform="translate(-71.3912,326.749) rotate(-135)">
			<title>Blad.1916</title>
			<path d="M0 241.44 L2.83 241.44" class="st3"/>
		</g>
		<g id="shape1917-198" v:mID="1917" v:groupContext="shape" transform="translate(-69.3868,328.754) rotate(-135)">
			<title>Blad.1917</title>
			<path d="M0 241.44 L2.83 241.44" class="st3"/>
		</g>
		<g id="shape1918-201" v:mID="1918" v:groupContext="shape" transform="translate(-73.3956,-12.6939) rotate(-45)">
			<title>Blad.1918</title>
			<path d="M0 241.44 L2.83 241.44" class="st3"/>
		</g>
		<g id="shape1919-204" v:mID="1919" v:groupContext="shape" transform="translate(-71.3912,-14.6983) rotate(-45)">
			<title>Blad.1919</title>
			<path d="M0 241.44 L2.83 241.44" class="st3"/>
		</g>
		<g id="group1926-207" transform="translate(99.3326,-0.375)" v:mID="1926" v:groupContext="group">
			<title>Maatlijn.1926</title>
			<g id="group1927-208" transform="translate(0,-9.92126)" v:mID="1927" v:groupContext="group">
				<title>Maatlijn.31</title>
				<g id="shape1928-209" v:mID="1928" v:groupContext="shape" transform="translate(241.44,232.936) rotate(90)">
					<title>Blad.1928</title>
					<path d="M0 241.44 L8.5 241.44" class="st17"/>
				</g>
				<g id="shape1929-212" v:mID="1929" v:groupContext="shape" transform="translate(354.826,232.936) rotate(90)">
					<title>Blad.1929</title>
					<path d="M0 241.44 L8.5 241.44" class="st17"/>
				</g>
				<g id="shape1930-215" v:mID="1930" v:groupContext="shape" transform="translate(0,-4.25197)">
					<title>Blad.1930</title>
					<path d="M3.74 241.44 L4.1 241.44 L109.29 241.44" class="st18"/>
				</g>
			</g>
			<g id="shape1931-222" v:mID="1931" v:groupContext="shape">
				<title>Blad.1931</title>
				<desc>400 mm</desc>
				<v:textBlock v:margins="rect(4,4,4,4)" v:tabSpace="42.5197"/>
				<v:textRect cx="56.6929" cy="234.353" width="113.39" height="14.1732"/>
				<rect x="0" y="227.267" width="113.386" height="14.1732" class="st15"/>
				<text x="36.86" y="237.95" class="st8" v:langID="1043"><v:paragraph v:horizAlign="1"/><v:tabList/>400 mm</text>			</g>
		</g>
		<g id="shape1932-225" v:mID="1932" v:groupContext="shape" transform="translate(85.1594,-85.4144)">
			<title>x-as.1932</title>
			<desc>SC</desc>
			<v:textBlock v:margins="rect(4,4,4,4)" v:tabSpace="42.5197"/>
			<v:textRect cx="14.1732" cy="234.353" width="28.35" height="14.1732"/>
			<rect x="0" y="227.267" width="28.3465" height="14.1732" class="st15"/>
			<text x="6.83" y="237.95" class="st8" v:langID="1043"><v:paragraph v:horizAlign="1"/><v:tabList/>SC</text>		</g>
		<g id="shape1936-228" v:mID="1936" v:groupContext="shape" transform="translate(148.939,-212.973)">
			<title>Punt A.1936</title>
			<desc>B</desc>
			<v:textBlock v:margins="rect(4,4,4,4)" v:tabSpace="42.5197"/>
			<v:textRect cx="7.08661" cy="234.353" width="14.18" height="14.1732"/>
			<rect x="0" y="227.267" width="14.1732" height="14.1732" class="st7"/>
			<text x="4" y="237.95" class="st8" v:langID="1043"><v:paragraph v:horizAlign="1"/><v:tabList/>B</text>		</g>
	</g>
</svg>
