<?xml version="1.0" encoding="UTF-8" standalone="no"?>
<!DOCTYPE svg PUBLIC "-//W3C//DTD SVG 1.1//EN" "http://www.w3.org/Graphics/SVG/1.1/DTD/svg11.dtd">
<!-- Gegenereerd door Microsoft Visio, SVG Export spanningen_afschuivend-1.svg Pagina-1 -->
<svg xmlns="http://www.w3.org/2000/svg" xmlns:xlink="http://www.w3.org/1999/xlink" xmlns:ev="http://www.w3.org/2001/xml-events"
		xmlns:v="http://schemas.microsoft.com/visio/2003/SVGExtensions/" width="3.65215in" height="2.00363in"
		viewBox="0 0 262.955 144.261" xml:space="preserve" color-interpolation-filters="sRGB" class="st22">
	<v:documentProperties v:langID="1043" v:metric="true" v:viewMarkup="false"/>

	<style type="text/css">
	<![CDATA[
		.st1 {marker-start:url(#mrkr5-6);stroke:#31859b;stroke-linecap:round;stroke-linejoin:round;stroke-opacity:0.5;stroke-width:0.75}
		.st2 {fill:#31859b;fill-opacity:0.5;stroke:#31859b;stroke-opacity:0.5;stroke-width:0.34246575342466}
		.st3 {stroke:#31859b;stroke-linecap:round;stroke-linejoin:round;stroke-width:0.75}
		.st4 {stroke:#31859b;stroke-linecap:round;stroke-linejoin:round;stroke-opacity:0.5;stroke-width:0.75}
		.st5 {stroke:#000000;stroke-linecap:round;stroke-linejoin:round;stroke-width:0.25}
		.st6 {fill:none;stroke:none;stroke-linecap:round;stroke-linejoin:round;stroke-width:0.75}
		.st7 {fill:#000000;font-family:Times New Roman;font-size:1.00001em;font-style:italic}
		.st8 {baseline-shift:33.349%;font-family:Sans Serif Collection;font-size:0.666979em}
		.st9 {fill:#d8d8d8;stroke:#000000;stroke-linecap:round;stroke-linejoin:round;stroke-width:0.75}
		.st10 {fill:#a5a5a5;stroke:#000000;stroke-linecap:round;stroke-linejoin:round;stroke-width:0.75}
		.st11 {marker-end:url(#mrkr5-45);stroke:#000000;stroke-linecap:round;stroke-linejoin:round;stroke-width:0.75}
		.st12 {fill:#000000;fill-opacity:1;stroke:#000000;stroke-opacity:1;stroke-width:0.22935779816514}
		.st13 {marker-start:url(#mrkr5-100);stroke:#31859b;stroke-linecap:round;stroke-linejoin:round;stroke-width:0.75}
		.st14 {fill:#31859b;fill-opacity:1;stroke:#31859b;stroke-opacity:1;stroke-width:0.34246575342466}
		.st15 {font-size:1em;font-style:normal}
		.st16 {fill:#7f7f7f;font-family:Times New Roman;font-size:1.00001em;font-style:italic}
		.st17 {marker-end:url(#mrkr4-132);marker-start:url(#mrkr4-130);stroke:#000000;stroke-linecap:round;stroke-linejoin:round;stroke-width:0.25}
		.st18 {fill:#000000;fill-opacity:1;stroke:#000000;stroke-opacity:1;stroke-width:0.1219512195122}
		.st19 {fill:#000000;font-family:Times New Roman;font-size:1.00001em}
		.st20 {font-size:1em;font-style:italic}
		.st21 {fill:#f2f2f2;stroke:#000000;stroke-linecap:round;stroke-linejoin:round;stroke-width:0.75}
		.st22 {fill:none;fill-rule:evenodd;font-size:12px;overflow:visible;stroke-linecap:square;stroke-miterlimit:3}
	]]>
	</style>

	<defs id="Markers">
		<g id="lend5">
			<path d="M 2 1 L 0 0 L 1.98117 -0.993387 C 1.67173 -0.364515 1.67301 0.372641 1.98465 1.00043 " style="stroke:none"/>
		</g>
		<marker id="mrkr5-6" class="st2" v:arrowType="5" v:arrowSize="0" v:setback="4.63" refX="4.63" orient="auto"
				markerUnits="strokeWidth" overflow="visible">
			<use xlink:href="#lend5" transform="scale(2.92) "/>
		</marker>
		<marker id="mrkr5-45" class="st12" v:arrowType="5" v:arrowSize="2" v:setback="7.63" refX="-7.63" orient="auto"
				markerUnits="strokeWidth" overflow="visible">
			<use xlink:href="#lend5" transform="scale(-4.36,-4.36) "/>
		</marker>
		<marker id="mrkr5-100" class="st14" v:arrowType="5" v:arrowSize="0" v:setback="4.63" refX="4.63" orient="auto"
				markerUnits="strokeWidth" overflow="visible">
			<use xlink:href="#lend5" transform="scale(2.92) "/>
		</marker>
		<g id="lend4">
			<path d="M 2 1 L 0 0 L 2 -1 L 2 1 " style="stroke:none"/>
		</g>
		<marker id="mrkr4-130" class="st18" v:arrowType="4" v:arrowSize="1" v:setback="14.96" refX="14.96" orient="auto"
				markerUnits="strokeWidth" overflow="visible">
			<use xlink:href="#lend4" transform="scale(8.2) "/>
		</marker>
		<marker id="mrkr4-132" class="st18" v:arrowType="4" v:arrowSize="1" v:setback="16.4" refX="-16.4" orient="auto"
				markerUnits="strokeWidth" overflow="visible">
			<use xlink:href="#lend4" transform="scale(-8.2,-8.2) "/>
		</marker>
	</defs>
	<g v:mID="0" v:index="1" v:groupContext="foregroundPage">
		<title>Pagina-1</title>
		<v:pageProperties v:drawingScale="0.0393701" v:pageScale="0.0393701" v:drawingUnits="24" v:shadowOffsetX="8.50394"
				v:shadowOffsetY="-8.50394"/>
		<g id="shape2222-1" v:mID="2222" v:groupContext="shape" transform="translate(152.029,-101.288)">
			<title>Spanning.2222</title>
			<path d="M3.47 144.26 L3.83 144.26 L21.26 144.26" class="st1"/>
		</g>
		<g id="shape2220-7" v:mID="2220" v:groupContext="shape" transform="translate(120.847,-90.6415)">
			<title>Blad.2220</title>
			<path d="M0 142.4 C17.01 135.32 42.52 149.49 56.69 142.4" class="st3"/>
		</g>
		<g id="shape2217-10" v:mID="2217" v:groupContext="shape" transform="translate(0.0859379,-37.2559) rotate(-33.6901)">
			<title>Blad.2217</title>
			<path d="M0 141.05 C10.22 131.54 42.93 151.83 51.1 141.05" class="st3"/>
		</g>
		<g id="shape2205-13" v:mID="2205" v:groupContext="shape" transform="translate(-37.5871,27.6659) rotate(-90)">
			<title>Spanning.2205</title>
			<path d="M3.47 144.26 L3.83 144.26 L21.26 144.26" class="st1"/>
		</g>
		<g id="shape2204-18" v:mID="2204" v:groupContext="shape" transform="translate(-20.1859,-67.3142) rotate(-26.5651)">
			<title>Blad.2204</title>
			<path d="M0 141.05 C12.68 131.54 53.24 151.83 63.38 141.05" class="st4"/>
		</g>
		<g id="shape2199-21" v:mID="2199" v:groupContext="shape" transform="translate(92.501,-142.107)">
			<title>Blad.2199</title>
			<path d="M0 144.26 L28.35 144.26" class="st4"/>
		</g>
		<g id="shape2201-24" v:mID="2201" v:groupContext="shape" transform="translate(98.5429,-113.761) scale(-1,1)">
			<title>Blad.2201</title>
			<path d="M6.41 115.91 C2.57 124.42 0 130.09 0 144.26" class="st4"/>
		</g>
		<g id="shape2160-27" v:mID="2160" v:groupContext="shape" transform="translate(164.561,179.034) rotate(156.555)">
			<title>Blad.2160</title>
			<path d="M0 134.09 C21.66 135.45 43.83 127.48 47.28 133.63 C49.09 136.85 45.75 143.95 42.94 144.26 C41.13 144.46 39.54
						 141.83 38.86 139.89 C36.04 131.83 48.83 135.49 60.56 134.09" class="st5"/>
		</g>
		<g id="shape2163-30" v:mID="2163" v:groupContext="shape" transform="translate(32.4065,-56.5009)">
			<title>Maatlijn verticaal.2163</title>
			<desc>A᜶</desc>
			<v:textBlock v:margins="rect(4,4,4,4)" v:tabSpace="42.5197"/>
			<v:textRect cx="14.1732" cy="141.427" width="28.35" height="5.66929"/>
			<rect x="0" y="138.592" width="28.3465" height="5.66929" class="st6"/>
			<text x="8.56" y="145.57" class="st7" v:langID="1043"><v:paragraph v:horizAlign="1"/><v:tabList/>A<tspan dy="0.049em"
						class="st8" v:baseFontSize="12">᜶</tspan></text>		</g>
		<g id="shape2145-34" v:mID="2145" v:groupContext="shape" transform="translate(135.021,-85.4144)">
			<title>Blad.2145</title>
			<path d="M0 115.91 L42.52 87.57 L42.52 115.91 L0 144.26 L0 115.91 Z" class="st9"/>
		</g>
		<g id="shape2092-36" v:mID="2092" v:groupContext="shape" transform="translate(78.3277,-85.4144)">
			<title>Blad.2092</title>
			<rect x="0" y="115.915" width="56.6929" height="28.3465" class="st10"/>
		</g>
		<g id="group2093-38" transform="translate(106.674,-28.7214)" v:mID="2093" v:groupContext="group">
			<title>z-as.2093</title>
			<g id="shape2094-39" v:mID="2094" v:groupContext="shape" transform="translate(144.261,115.915) rotate(90)">
				<title>Blad.2094</title>
				<path d="M0 144.26 L22.62 144.26" class="st11"/>
			</g>
			<g id="shape2095-46" v:mID="2095" v:groupContext="shape">
				<title>Blad.2095</title>
				<desc>z</desc>
				<v:textBlock v:margins="rect(4,4,4,4)" v:tabSpace="42.5197"/>
				<v:textRect cx="7.08661" cy="137.175" width="14.18" height="14.1732"/>
				<rect x="0" y="130.088" width="14.1732" height="14.1732" class="st6"/>
				<text x="4.75" y="140.77" class="st7" v:langID="1043"><v:paragraph v:horizAlign="1"/><v:tabList/>z</text>			</g>
		</g>
		<g id="group2096-49" transform="translate(106.674,-42.8947)" v:mID="2096" v:groupContext="group">
			<title>x-as.2096</title>
			<g id="shape2097-50" v:mID="2097" v:groupContext="shape" transform="translate(-1.65234E-12,-14.1732)">
				<title>Blad.2097</title>
				<path d="M0 144.26 L22.62 144.26" class="st11"/>
			</g>
			<g id="shape2098-55" v:mID="2098" v:groupContext="shape" transform="translate(14.1732,0)">
				<title>Blad.2098</title>
				<desc>x</desc>
				<v:textBlock v:margins="rect(4,4,4,4)" v:tabSpace="42.5197"/>
				<v:textRect cx="7.08661" cy="137.175" width="14.18" height="14.1732"/>
				<rect x="0" y="130.088" width="14.1732" height="14.1732" class="st6"/>
				<text x="4.42" y="140.77" class="st7" v:langID="1043"><v:paragraph v:horizAlign="1"/><v:tabList/>x</text>			</g>
		</g>
		<g id="shape2099-58" v:mID="2099" v:groupContext="shape" transform="translate(-80.1068,55.3036) rotate(-90)">
			<title>Spanning.2099</title>
			<path d="M3.47 144.26 L3.83 144.26 L21.26 144.26" class="st1"/>
		</g>
		<g id="shape2100-63" v:mID="2100" v:groupContext="shape" transform="translate(293.455,34.0438) rotate(90)">
			<title>Spanning.2100</title>
			<path d="M3.47 144.26 L3.83 144.26 L21.26 144.26" class="st1"/>
		</g>
		<g id="shape2101-68" v:mID="2101" v:groupContext="shape" transform="translate(42.8947,-85.4144)">
			<title>Blad.2101</title>
			<path d="M7.09 115.91 C2.83 124.42 0 130.09 0 144.26" class="st4"/>
		</g>
		<g id="shape2102-71" v:mID="2102" v:groupContext="shape" transform="translate(49.9813,-113.761)">
			<title>Blad.2102</title>
			<path d="M0 144.26 L28.35 144.26" class="st4"/>
		</g>
		<g id="shape2103-74" v:mID="2103" v:groupContext="shape" transform="translate(135.021,-113.761)">
			<title>Blad.2103</title>
			<path d="M0 144.26 L28.35 144.26" class="st4"/>
		</g>
		<g id="shape2104-77" v:mID="2104" v:groupContext="shape" transform="translate(156.281,-85.4144)">
			<title>Blad.2104</title>
			<path d="M7.09 115.91 C2.83 124.42 0 130.09 0 144.26" class="st4"/>
		</g>
		<g id="shape2105-80" v:mID="2105" v:groupContext="shape" transform="translate(42.8947,-85.4144) rotate(1.46284E-06)">
			<title>Blad.2105</title>
			<path d="M0 144.26 L35.43 144.26" class="st4"/>
		</g>
		<g id="shape2106-83" v:mID="2106" v:groupContext="shape" transform="translate(135.021,-85.4144)">
			<title>Blad.2106</title>
			<path d="M0 144.26 L21.26 144.26" class="st4"/>
		</g>
		<g id="shape2108-86" v:mID="2108" v:groupContext="shape" transform="translate(222.589,58.8469) rotate(90)">
			<title>Blad.2108</title>
			<path d="M0 144.26 L21.26 144.26" class="st3"/>
		</g>
		<g id="shape2109-89" v:mID="2109" v:groupContext="shape" transform="translate(279.282,58.8469) rotate(90)">
			<title>Blad.2109</title>
			<path d="M0 144.26 L21.26 144.26" class="st3"/>
		</g>
		<g id="shape2110-92" v:mID="2110" v:groupContext="shape" transform="translate(78.3277,-62.2951)">
			<title>Blad.2110</title>
			<path d="M0 142.4 C17.01 135.32 42.52 149.49 56.69 142.4" class="st3"/>
		</g>
		<g id="shape2111-95" v:mID="2111" v:groupContext="shape" transform="translate(85.4144,-71.2411)">
			<title>Spanning.2111</title>
			<path d="M3.47 144.26 L3.83 144.26 L14.17 144.26" class="st13"/>
		</g>
		<g id="shape2112-101" v:mID="2112" v:groupContext="shape" transform="translate(106.674,-71.2411)">
			<title>Spanning.2112</title>
			<path d="M3.47 144.26 L3.83 144.26 L21.26 144.26" class="st13"/>
		</g>
		<g id="shape2132-106" v:mID="2132" v:groupContext="shape" transform="translate(135.021,-57.0679)">
			<title>Blad.2132</title>
			<desc>τ(x,y) = ?</desc>
			<v:textBlock v:margins="rect(4,4,4,4)" v:tabSpace="42.5197"/>
			<v:textRect cx="28.3465" cy="137.175" width="56.7" height="14.1732"/>
			<rect x="0" y="130.088" width="56.6929" height="14.1732" class="st6"/>
			<text x="6.33" y="140.78" class="st7" v:langID="1043"><v:paragraph v:horizAlign="1"/><v:tabList/>τ<tspan class="st15">(</tspan>x,y<tspan
						class="st15">) = ?</tspan></text>		</g>
		<g id="shape2134-111" v:mID="2134" v:groupContext="shape" transform="translate(205.887,-120.847)">
			<title>Blad.2134</title>
			<desc>τ(y,z) = ?</desc>
			<v:textBlock v:margins="rect(4,4,4,4)" v:tabSpace="42.5197"/>
			<v:textRect cx="28.3465" cy="137.175" width="56.7" height="14.1732"/>
			<rect x="0" y="130.088" width="56.6929" height="14.1732" class="st6"/>
			<text x="6.66" y="140.78" class="st16" v:langID="1043"><v:paragraph v:horizAlign="1"/><v:tabList/>τ<tspan class="st15">(</tspan>y,z<tspan
						class="st15">) = ?</tspan></text>		</g>
		<g id="group2137-116" transform="translate(78.3278,-0.375)" v:mID="2137" v:groupContext="group">
			<title>Maatlijn.2137</title>
			<g id="group2138-117" transform="translate(0,-9.92126)" v:mID="2138" v:groupContext="group">
				<title>Maatlijn.31</title>
				<g id="shape2139-118" v:mID="2139" v:groupContext="shape" transform="translate(144.261,135.757) rotate(90)">
					<title>Blad.2139</title>
					<path d="M0 144.26 L8.5 144.26" class="st5"/>
				</g>
				<g id="shape2140-121" v:mID="2140" v:groupContext="shape" transform="translate(200.954,135.757) rotate(90)">
					<title>Blad.2140</title>
					<path d="M0 144.26 L8.5 144.26" class="st5"/>
				</g>
				<g id="shape2141-124" v:mID="2141" v:groupContext="shape" transform="translate(0,-4.25197)">
					<title>Blad.2141</title>
					<path d="M3.74 144.26 L4.1 144.26 L52.59 144.26" class="st17"/>
				</g>
			</g>
			<g id="shape2142-133" v:mID="2142" v:groupContext="shape">
				<title>Blad.2142</title>
				<desc>Δx</desc>
				<v:textBlock v:margins="rect(4,4,4,4)" v:tabSpace="42.5197"/>
				<v:textRect cx="28.3465" cy="137.175" width="56.7" height="14.1732"/>
				<rect x="0" y="130.088" width="56.6929" height="14.1732" class="st6"/>
				<text x="21.82" y="140.78" class="st19" v:langID="1043"><v:paragraph v:horizAlign="1"/><v:tabList/>Δ<tspan
							class="st20">x</tspan></text>			</g>
		</g>
		<g id="shape2143-137" v:mID="2143" v:groupContext="shape" transform="translate(78.3278,-113.761)">
			<title>Blad.2143</title>
			<path d="M0 144.26 L42.52 115.91 L99.21 115.91 L56.69 144.26 L0 144.26 Z" class="st21"/>
		</g>
		<g id="shape2176-139" v:mID="2176" v:groupContext="shape" transform="translate(177.54,-142.107)">
			<title>Blad.2176</title>
			<path d="M0 144.26 L28.35 144.26" class="st4"/>
		</g>
		<g id="shape2177-142" v:mID="2177" v:groupContext="shape" transform="translate(85.4511,-86.3734) rotate(-33.6901)">
			<title>Blad.2177</title>
			<path d="M0 140.46 C31.29 152.81 23.59 130.64 51.1 140.46" class="st4"/>
		</g>
		<g id="shape2178-145" v:mID="2178" v:groupContext="shape" transform="translate(212.973,-113.761) scale(-1,1)">
			<title>Blad.2178</title>
			<path d="M7.09 115.91 C2.83 124.42 0 130.09 0 144.26" class="st4"/>
		</g>
		<g id="shape2179-148" v:mID="2179" v:groupContext="shape" transform="translate(335.975,4.98871) rotate(90)">
			<title>Spanning.2179</title>
			<path d="M3.47 144.26 L3.83 144.26 L21.26 144.26" class="st1"/>
		</g>
		<g id="shape2187-153" v:mID="2187" v:groupContext="shape" transform="translate(54.9989,9.6804) rotate(-33.6901)">
			<title>Blad.2187</title>
			<path d="M3.74 144.26 L4.1 144.26 L47 144.26" class="st17"/>
		</g>
		<g id="shape2189-160" v:mID="2189" v:groupContext="shape" transform="translate(33.2791,101.367) rotate(-90)">
			<title>Blad.2189</title>
			<path d="M0 144.26 L4.25 144.26" class="st5"/>
		</g>
		<g id="shape2191-163" v:mID="2191" v:groupContext="shape" transform="translate(154.863,-15.9655)">
			<title>Maatlijn.2191</title>
			<desc>b</desc>
			<v:textBlock v:margins="rect(4,4,4,4)" v:tabSpace="42.5197"/>
			<v:textRect cx="7.08661" cy="137.175" width="14.18" height="14.1732"/>
			<rect x="0" y="130.088" width="14.1732" height="14.1732" class="st6"/>
			<text x="4.09" y="140.77" class="st7" v:langID="1043"><v:paragraph v:horizAlign="1"/><v:tabList/>b</text>		</g>
		<g id="shape2197-166" v:mID="2197" v:groupContext="shape" transform="translate(93.1999,-67.3142) rotate(-26.5651)">
			<title>Blad.2197</title>
			<path d="M0 141.05 C12.68 131.54 53.24 151.83 63.38 141.05" class="st4"/>
		</g>
		<g id="shape2198-169" v:mID="2198" v:groupContext="shape" transform="translate(0.375,-109.777)">
			<title>Blad.2198</title>
			<desc>τ(y,z) = ?</desc>
			<v:textBlock v:margins="rect(4,4,4,4)" v:tabSpace="42.5197"/>
			<v:textRect cx="28.3465" cy="137.175" width="56.7" height="14.1732"/>
			<rect x="0" y="130.088" width="56.6929" height="14.1732" class="st6"/>
			<text x="6.66" y="140.78" class="st16" v:langID="1043"><v:paragraph v:horizAlign="1"/><v:tabList/>τ<tspan class="st15">(</tspan>y,z<tspan
						class="st15">) = ?</tspan></text>		</g>
		<g id="shape2203-174" v:mID="2203" v:groupContext="shape" transform="translate(-27.9347,-86.3734) rotate(-33.6901)">
			<title>Blad.2203</title>
			<path d="M0 140.46 C31.29 152.81 23.59 130.64 51.1 140.46" class="st4"/>
		</g>
		<g id="shape2213-177" v:mID="2213" v:groupContext="shape" transform="translate(186.696,207.226) rotate(146.31)">
			<title>Blad.2213</title>
			<path d="M0 144.26 L22.62 144.26" class="st11"/>
		</g>
		<g id="shape2214-182" v:mID="2214" v:groupContext="shape" transform="translate(81.1624,-28.7214)">
			<title>Blad.2214</title>
			<desc>y</desc>
			<v:textBlock v:margins="rect(4,4,4,4)" v:tabSpace="42.5197"/>
			<v:textRect cx="7.08661" cy="137.175" width="14.18" height="14.1732"/>
			<rect x="0" y="130.088" width="14.1732" height="14.1732" class="st6"/>
			<text x="4.42" y="140.77" class="st7" v:langID="1043"><v:paragraph v:horizAlign="1"/><v:tabList/>y</text>		</g>
		<g id="shape2218-185" v:mID="2218" v:groupContext="shape" transform="translate(321.802,30.5005) rotate(90)">
			<title>Blad.2218</title>
			<path d="M0 144.26 L21.26 144.26" class="st3"/>
		</g>
		<g id="shape2219-188" v:mID="2219" v:groupContext="shape" transform="translate(255.029,167.993) rotate(146.31)">
			<title>Blad.2219</title>
			<path d="M0 139.69 C3.93 133.8 18.97 136.57 27.68 140.61 C34.37 143.71 37.34 147.56 51.1 139.69" class="st3"/>
		</g>
		<g id="shape2221-191" v:mID="2221" v:groupContext="shape" transform="translate(177.54,-113.761) rotate(8.02979E-06)">
			<title>Blad.2221</title>
			<path d="M0 144.26 L35.43 144.26" class="st4"/>
		</g>
		<g id="shape2223-194" v:mID="2223" v:groupContext="shape" transform="translate(33.2791,105.619) rotate(-90)">
			<title>Blad.2223</title>
			<path d="M0 144.26 L4.25 144.26" class="st5"/>
		</g>
	</g>
</svg>
