<?xml version="1.0" encoding="UTF-8" standalone="no"?>
<!DOCTYPE svg PUBLIC "-//W3C//DTD SVG 1.1//EN" "http://www.w3.org/Graphics/SVG/1.1/DTD/svg11.dtd">
<!-- Gegenereerd door Microsoft Visio, SVG Export torsionljn.svg Pagina-1 -->
<svg xmlns="http://www.w3.org/2000/svg" xmlns:xlink="http://www.w3.org/1999/xlink" xmlns:ev="http://www.w3.org/2001/xml-events"
		xmlns:v="http://schemas.microsoft.com/visio/2003/SVGExtensions/" width="4.19255in" height="2.51435in"
		viewBox="0 0 301.864 181.033" xml:space="preserve" color-interpolation-filters="sRGB" class="st22">
	<v:documentProperties v:langID="1043" v:metric="true" v:viewMarkup="false"/>

	<style type="text/css">
	<![CDATA[
		.st1 {stroke:#000000;stroke-linecap:round;stroke-linejoin:round;stroke-width:1.2}
		.st2 {stroke:#000000;stroke-linecap:round;stroke-linejoin:round;stroke-width:0.75}
		.st3 {stroke:#000000;stroke-linecap:round;stroke-linejoin:round;stroke-width:2}
		.st4 {marker-start:url(#mrkr5-108);stroke:#800000;stroke-linecap:round;stroke-linejoin:round;stroke-width:2}
		.st5 {fill:#800000;fill-opacity:1;stroke:#800000;stroke-opacity:1;stroke-width:0.44247787610619}
		.st6 {fill:none;stroke:none;stroke-linecap:round;stroke-linejoin:round;stroke-width:0.24}
		.st7 {fill:#000000;font-family:Times New Roman;font-size:1.00001em;font-style:italic}
		.st8 {baseline-shift:-32.4941%;font-size:0.649882em}
		.st9 {font-size:1em;font-style:normal}
		.st10 {marker-end:url(#mrkr5-120);stroke:#800000;stroke-linecap:round;stroke-linejoin:round;stroke-width:1.2}
		.st11 {fill:#800000;fill-opacity:1;stroke:#800000;stroke-opacity:1;stroke-width:0.45454545454546}
		.st12 {stroke:#800000;stroke-linecap:round;stroke-linejoin:round;stroke-width:1.2}
		.st13 {fill:none;marker-start:url(#mrkr13-157);stroke:none;stroke-linecap:round;stroke-linejoin:round;stroke-width:0.75}
		.st14 {fill:#000000;fill-opacity:1;stroke:#000000;stroke-opacity:1;stroke-width:0.22935779816514}
		.st15 {font-size:1em}
		.st16 {marker-end:url(#mrkr5-176);stroke:#000000;stroke-linecap:round;stroke-linejoin:round;stroke-width:0.75}
		.st17 {fill:none;stroke:none;stroke-linecap:round;stroke-linejoin:round;stroke-width:0.75}
		.st18 {stroke:#000000;stroke-linecap:round;stroke-linejoin:round;stroke-width:0.25}
		.st19 {marker-end:url(#mrkr4-207);marker-start:url(#mrkr4-205);stroke:#000000;stroke-linecap:round;stroke-linejoin:round;stroke-width:0.25}
		.st20 {fill:#000000;fill-opacity:1;stroke:#000000;stroke-opacity:1;stroke-width:0.1219512195122}
		.st21 {fill:#000000;font-family:Times New Roman;font-size:1.00001em}
		.st22 {fill:none;fill-rule:evenodd;font-size:12px;overflow:visible;stroke-linecap:square;stroke-miterlimit:3}
	]]>
	</style>

	<defs id="Markers">
		<g id="lend5">
			<path d="M 2 1 L 0 0 L 1.98117 -0.993387 C 1.67173 -0.364515 1.67301 0.372641 1.98465 1.00043 " style="stroke:none"/>
		</g>
		<marker id="mrkr5-108" class="st5" v:arrowType="5" v:arrowSize="2" v:setback="3.775" refX="3.775" orient="auto"
				markerUnits="strokeWidth" overflow="visible">
			<use xlink:href="#lend5" transform="scale(2.26) "/>
		</marker>
		<marker id="mrkr5-120" class="st11" v:arrowType="5" v:arrowSize="0" v:setback="3.85" refX="-3.85" orient="auto"
				markerUnits="strokeWidth" overflow="visible">
			<use xlink:href="#lend5" transform="scale(-2.2,-2.2) "/>
		</marker>
		<g id="lend13">
			<path d="M 3 1 L 0 0 L 3 -1 L 3 1 " style="stroke:none"/>
		</g>
		<marker id="mrkr13-157" class="st14" v:arrowType="13" v:arrowSize="2" v:setback="13.08" refX="13.08" orient="auto"
				markerUnits="strokeWidth" overflow="visible">
			<use xlink:href="#lend13" transform="scale(4.36) "/>
		</marker>
		<marker id="mrkr5-176" class="st14" v:arrowType="5" v:arrowSize="2" v:setback="7.63" refX="-7.63" orient="auto"
				markerUnits="strokeWidth" overflow="visible">
			<use xlink:href="#lend5" transform="scale(-4.36,-4.36) "/>
		</marker>
		<g id="lend4">
			<path d="M 2 1 L 0 0 L 2 -1 L 2 1 " style="stroke:none"/>
		</g>
		<marker id="mrkr4-205" class="st20" v:arrowType="4" v:arrowSize="1" v:setback="14.96" refX="14.96" orient="auto"
				markerUnits="strokeWidth" overflow="visible">
			<use xlink:href="#lend4" transform="scale(8.2) "/>
		</marker>
		<marker id="mrkr4-207" class="st20" v:arrowType="4" v:arrowSize="1" v:setback="16.4" refX="-16.4" orient="auto"
				markerUnits="strokeWidth" overflow="visible">
			<use xlink:href="#lend4" transform="scale(-8.2,-8.2) "/>
		</marker>
	</defs>
	<g v:mID="0" v:index="1" v:groupContext="foregroundPage">
		<title>Pagina-1</title>
		<v:pageProperties v:drawingScale="0.0393701" v:pageScale="0.0393701" v:drawingUnits="24" v:shadowOffsetX="8.50394"
				v:shadowOffsetY="-8.50394"/>
		<g id="shape491-1" v:mID="491" v:groupContext="shape" transform="translate(278.93,8.87891) rotate(90)">
			<title>Blad.491</title>
			<path d="M0 181.03 L28.35 181.03" class="st1"/>
		</g>
		<g id="shape492-4" v:mID="492" v:groupContext="shape" transform="translate(214.568,-127.635) rotate(44.9999)">
			<title>Blad.492</title>
			<path d="M0 181.03 L16.04 181.03" class="st2"/>
		</g>
		<g id="shape493-7" v:mID="493" v:groupContext="shape" transform="translate(214.568,-124.8) rotate(45)">
			<title>Blad.493</title>
			<path d="M0 181.03 L16.04 181.03" class="st2"/>
		</g>
		<g id="shape494-10" v:mID="494" v:groupContext="shape" transform="translate(214.568,-121.966) rotate(45)">
			<title>Blad.494</title>
			<path d="M0 181.03 L16.04 181.03" class="st2"/>
		</g>
		<g id="shape495-13" v:mID="495" v:groupContext="shape" transform="translate(214.568,-119.131) rotate(45)">
			<title>Blad.495</title>
			<path d="M0 181.03 L16.04 181.03" class="st2"/>
		</g>
		<g id="shape496-16" v:mID="496" v:groupContext="shape" transform="translate(214.568,-116.296) rotate(45)">
			<title>Blad.496</title>
			<path d="M0 181.03 L16.04 181.03" class="st2"/>
		</g>
		<g id="shape497-19" v:mID="497" v:groupContext="shape" transform="translate(224.017,-104.013) rotate(45)">
			<title>Blad.497</title>
			<path d="M0 181.03 L2.67 181.03" class="st2"/>
		</g>
		<g id="shape498-22" v:mID="498" v:groupContext="shape" transform="translate(222.127,-103.068) rotate(45)">
			<title>Blad.498</title>
			<path d="M0 181.03 L5.35 181.03" class="st2"/>
		</g>
		<g id="shape499-25" v:mID="499" v:groupContext="shape" transform="translate(220.238,-102.123) rotate(45)">
			<title>Blad.499</title>
			<path d="M0 181.03 L8.02 181.03" class="st2"/>
		</g>
		<g id="shape500-28" v:mID="500" v:groupContext="shape" transform="translate(217.702,-101.751) rotate(44.7325)">
			<title>Blad.500</title>
			<path d="M0 181.03 L10.71 181.03" class="st2"/>
		</g>
		<g id="shape501-31" v:mID="501" v:groupContext="shape" transform="translate(216.458,-100.233) rotate(45)">
			<title>Blad.501</title>
			<path d="M0 181.03 L13.36 181.03" class="st2"/>
		</g>
		<g id="shape502-34" v:mID="502" v:groupContext="shape" transform="translate(191.535,178.635) rotate(153.435)">
			<title>Blad.502</title>
			<path d="M0 181.03 L28.35 181.03" class="st1"/>
		</g>
		<g id="shape503-37" v:mID="503" v:groupContext="shape" transform="translate(280.627,72.6937) rotate(108.435)">
			<title>Blad.503</title>
			<path d="M0 181.03 L2.67 181.03" class="st2"/>
		</g>
		<g id="shape504-40" v:mID="504" v:groupContext="shape" transform="translate(278.937,71.426) rotate(108.435)">
			<title>Blad.504</title>
			<path d="M0 181.03 L5.35 181.03" class="st2"/>
		</g>
		<g id="shape505-43" v:mID="505" v:groupContext="shape" transform="translate(277.247,70.1583) rotate(108.435)">
			<title>Blad.505</title>
			<path d="M0 181.03 L8.02 181.03" class="st2"/>
		</g>
		<g id="shape506-46" v:mID="506" v:groupContext="shape" transform="translate(275.556,68.8906) rotate(108.435)">
			<title>Blad.506</title>
			<path d="M0 181.03 L10.69 181.03" class="st2"/>
		</g>
		<g id="shape507-49" v:mID="507" v:groupContext="shape" transform="translate(273.866,67.6229) rotate(108.435)">
			<title>Blad.507</title>
			<path d="M0 181.03 L13.36 181.03" class="st2"/>
		</g>
		<g id="shape508-52" v:mID="508" v:groupContext="shape" transform="translate(272.176,66.3552) rotate(108.435)">
			<title>Blad.508</title>
			<path d="M0 181.03 L7.12 181.03" class="st2"/>
		</g>
		<g id="shape509-55" v:mID="509" v:groupContext="shape" transform="translate(266.26,77.7644) rotate(108.435)">
			<title>Blad.509</title>
			<path d="M0 181.03 L5.35 181.03" class="st2"/>
		</g>
		<g id="shape510-58" v:mID="510" v:groupContext="shape" transform="translate(264.57,76.4967) rotate(108.435)">
			<title>Blad.510</title>
			<path d="M0 181.03 L8.02 181.03" class="st2"/>
		</g>
		<g id="shape511-61" v:mID="511" v:groupContext="shape" transform="translate(262.879,75.229) rotate(108.435)">
			<title>Blad.511</title>
			<path d="M0 181.03 L10.69 181.03" class="st2"/>
		</g>
		<g id="shape512-64" v:mID="512" v:groupContext="shape" transform="translate(261.189,73.9613) rotate(108.435)">
			<title>Blad.512</title>
			<path d="M0 181.03 L13.36 181.03" class="st2"/>
		</g>
		<g id="shape513-67" v:mID="513" v:groupContext="shape" transform="translate(259.499,72.6937) rotate(108.435)">
			<title>Blad.513</title>
			<path d="M0 181.03 L13.36 181.03" class="st2"/>
		</g>
		<g id="shape514-70" v:mID="514" v:groupContext="shape" transform="translate(256.963,73.9614) rotate(108.435)">
			<title>Blad.514</title>
			<path d="M0 181.03 L10.69 181.03" class="st2"/>
		</g>
		<g id="shape515-73" v:mID="515" v:groupContext="shape" transform="translate(254.428,75.2291) rotate(108.435)">
			<title>Blad.515</title>
			<path d="M0 181.03 L8.02 181.03" class="st2"/>
		</g>
		<g id="shape516-76" v:mID="516" v:groupContext="shape" transform="translate(251.893,76.4968) rotate(108.435)">
			<title>Blad.516</title>
			<path d="M0 181.03 L5.35 181.03" class="st2"/>
		</g>
		<g id="shape517-79" v:mID="517" v:groupContext="shape" transform="translate(249.357,77.7645) rotate(108.435)">
			<title>Blad.517</title>
			<path d="M0 181.03 L2.67 181.03" class="st2"/>
		</g>
		<g id="shape518-82" v:mID="518" v:groupContext="shape" transform="translate(267.95,79.0321) rotate(108.435)">
			<title>Blad.518</title>
			<path d="M0 181.03 L2.67 181.03" class="st2"/>
		</g>
		<g id="shape519-85" v:mID="519" v:groupContext="shape" transform="translate(206.507,-121.775) rotate(36.8699)">
			<title>Ligger, 2 pt.519</title>
			<path d="M0 181.03 L42.52 181.03" class="st3"/>
		</g>
		<g id="shape520-88" v:mID="520" v:groupContext="shape" transform="translate(12.9111,-94.3419) rotate(-26.5651)">
			<title>Ligger, 2 pt.520</title>
			<path d="M0 181.03 L42.52 181.03" class="st3"/>
		</g>
		<g id="shape521-91" v:mID="521" v:groupContext="shape" transform="translate(308.554,-45.2392) rotate(36.8699)">
			<title>Ligger, 2 pt.521</title>
			<path d="M0 181.03 L42.52 181.03" class="st3"/>
		</g>
		<g id="shape523-94" v:mID="523" v:groupContext="shape" transform="translate(202.492,-77.2474) rotate(36.8699)">
			<title>Ligger, 2 pt.523</title>
			<path d="M0 181.03 L85.04 181.03" class="st3"/>
		</g>
		<g id="shape524-97" v:mID="524" v:groupContext="shape" transform="translate(80.9426,-43.3182) rotate(-26.5651)">
			<title>Ligger, 2 pt.524</title>
			<path d="M0 181.03 L42.52 181.03" class="st3"/>
		</g>
		<g id="shape525-100" v:mID="525" v:groupContext="shape" transform="translate(152.989,-36.8218) rotate(-26.5651)">
			<title>Ligger, 2 pt.525</title>
			<path d="M0 181.03 L42.52 181.03" class="st3"/>
		</g>
		<g id="shape526-103" v:mID="526" v:groupContext="shape" transform="translate(90.9471,106.084) rotate(-90)">
			<title>Kracht</title>
			<path d="M7.55 181.03 L7.91 181.03 L28.35 181.03" class="st4"/>
		</g>
		<g id="shape528-109" v:mID="528" v:groupContext="shape" transform="translate(202.769,-89.9498)">
			<title>A.58</title>
			<desc>Fz = 10 kN</desc>
			<v:textBlock v:margins="rect(4,4,4,4)" v:tabSpace="42.5197"/>
			<v:textRect cx="35.4331" cy="173.947" width="70.87" height="14.1732"/>
			<rect x="0" y="166.86" width="70.8661" height="14.1732" class="st6"/>
			<text x="9.03" y="177.55" class="st7" v:langID="1043"><v:paragraph v:horizAlign="1"/><v:tabList/>F<tspan dy="-0.279em"
						class="st8" v:baseFontSize="12">z</tspan><tspan dy="0.181em" class="st9"> </tspan><tspan class="st9">= 10 kN</tspan></text>		</g>
		<g id="shape529-115" v:mID="529" v:groupContext="shape" transform="translate(286.244,37.9499) rotate(90)">
			<title>Kracht.5</title>
			<path d="M0 181.03 L33.51 181.03" class="st10"/>
		</g>
		<g id="shape530-121" v:mID="530" v:groupContext="shape" transform="translate(231.865,-92.5265) rotate(49.543)">
			<title>Blad.530</title>
			<path d="M0 181.03 L104.47 181.03" class="st12"/>
		</g>
		<g id="shape531-124" v:mID="531" v:groupContext="shape" transform="translate(331.598,91.1338) rotate(90)">
			<title>Kracht.4</title>
			<path d="M0 181.03 L14.35 181.03" class="st10"/>
		</g>
		<g id="shape532-129" v:mID="532" v:groupContext="shape" transform="translate(320.26,77.8378) rotate(90)">
			<title>Kracht.9</title>
			<path d="M0 181.03 L19.14 181.03" class="st10"/>
		</g>
		<g id="shape533-134" v:mID="533" v:groupContext="shape" transform="translate(342.937,104.43) rotate(90)">
			<title>Kracht.6</title>
			<path d="M0 181.03 L9.55 181.03" class="st10"/>
		</g>
		<g id="shape534-139" v:mID="534" v:groupContext="shape" transform="translate(308.921,64.5418) rotate(90)">
			<title>Kracht.37</title>
			<path d="M0 181.03 L23.93 181.03" class="st10"/>
		</g>
		<g id="shape535-144" v:mID="535" v:groupContext="shape" transform="translate(297.582,51.2459) rotate(90)">
			<title>Kracht.7</title>
			<path d="M0 181.03 L28.72 181.03" class="st10"/>
		</g>
		<g id="shape536-149" v:mID="536" v:groupContext="shape" transform="translate(275.151,24.9419) rotate(90)">
			<title>Kracht.536</title>
			<path d="M0 181.03 L37.9 181.03" class="st10"/>
		</g>
		<g id="shape537-154" v:mID="537" v:groupContext="shape" transform="translate(126.233,-47.4301)">
			<title>q_1</title>
			<desc>qz = 5 kN/m</desc>
			<v:textBlock v:margins="rect(4,4,4,4)" v:tabSpace="42.5197"/>
			<v:textRect cx="35.4331" cy="173.947" width="70.87" height="14.1732"/>
			<rect x="0" y="166.86" width="70.8661" height="14.1732" class="st13"/>
			<text x="6.36" y="177.55" class="st7" v:langID="1033"><v:paragraph v:horizAlign="1"/><v:tabList/>q<tspan dy="-0.279em"
						class="st8" v:langID="1043" v:baseFontSize="12">z</tspan><tspan dy="0.181em" class="st15" v:langID="1043"> </tspan><tspan
						class="st9" v:langID="1043">= 5 kN/m</tspan></text>		</g>
		<g id="shape538-162" v:mID="538" v:groupContext="shape" transform="translate(23.9026,-97.0364)">
			<title>q_1.538</title>
			<desc>qz = 15 kN/m</desc>
			<v:textBlock v:margins="rect(4,4,4,4)" v:tabSpace="42.5197"/>
			<v:textRect cx="40.5354" cy="173.947" width="81.08" height="14.1732"/>
			<rect x="0" y="166.86" width="81.0709" height="14.1732" class="st13"/>
			<text x="8.47" y="177.55" class="st7" v:langID="1033"><v:paragraph v:horizAlign="1"/><v:tabList/>q<tspan dy="-0.279em"
						class="st8" v:langID="1043" v:baseFontSize="12">z</tspan><tspan dy="0.181em" class="st15" v:langID="1043"> </tspan><tspan
						class="st9" v:langID="1043">= 15 kN/m</tspan></text>		</g>
		<g id="group544-169" transform="translate(97.8868,-65.8553)" v:mID="544" v:groupContext="group">
			<title>z-as.544</title>
			<g id="shape545-170" v:mID="545" v:groupContext="shape" transform="translate(181.033,152.687) rotate(90)">
				<title>Blad.545</title>
				<path d="M0 181.03 L22.62 181.03" class="st16"/>
			</g>
			<g id="shape546-177" v:mID="546" v:groupContext="shape">
				<title>Blad.546</title>
				<desc>z</desc>
				<v:textBlock v:margins="rect(4,4,4,4)" v:tabSpace="42.5197"/>
				<v:textRect cx="7.08661" cy="173.947" width="14.18" height="14.1732"/>
				<rect x="0" y="166.86" width="14.1732" height="14.1732" class="st17"/>
				<text x="4.75" y="177.55" class="st7" v:langID="1043"><v:paragraph v:horizAlign="1"/><v:tabList/>z</text>			</g>
		</g>
		<g id="shape548-180" v:mID="548" v:groupContext="shape" transform="translate(156.039,196.383) rotate(153.435)">
			<title>Blad.548</title>
			<path d="M0 181.03 L22.62 181.03" class="st16"/>
		</g>
		<g id="shape550-185" v:mID="550" v:groupContext="shape" transform="translate(55.3671,-122.548)">
			<title>Blad.550</title>
			<desc>y</desc>
			<v:textBlock v:margins="rect(4,4,4,4)" v:tabSpace="42.5197"/>
			<v:textRect cx="7.08661" cy="173.947" width="14.18" height="14.1732"/>
			<rect x="0" y="166.86" width="14.1732" height="14.1732" class="st17"/>
			<text x="4.42" y="177.55" class="st7" v:langID="1043"><v:paragraph v:horizAlign="1"/><v:tabList/>y</text>		</g>
		<g id="shape552-188" v:mID="552" v:groupContext="shape" transform="translate(160.249,-108.375)">
			<title>Blad.552</title>
			<desc>x</desc>
			<v:textBlock v:margins="rect(4,4,4,4)" v:tabSpace="42.5197"/>
			<v:textRect cx="7.08661" cy="173.947" width="14.18" height="14.1732"/>
			<rect x="0" y="166.86" width="14.1732" height="14.1732" class="st17"/>
			<text x="4.42" y="177.55" class="st7" v:langID="1043"><v:paragraph v:horizAlign="1"/><v:tabList/>x</text>		</g>
		<g id="shape553-191" v:mID="553" v:groupContext="shape" transform="translate(250.849,-88.5181) rotate(36.8699)">
			<title>Blad.553</title>
			<path d="M0 181.03 L22.62 181.03" class="st16"/>
		</g>
		<g id="shape556-196" v:mID="556" v:groupContext="shape" transform="translate(365.247,-2.71948) rotate(36.8699)">
			<title>Blad.556</title>
			<path d="M0 181.03 L4.25 181.03" class="st18"/>
		</g>
		<g id="shape558-199" v:mID="558" v:groupContext="shape" transform="translate(175.666,-19.8139) rotate(-26.5651)">
			<title>Blad.558</title>
			<path d="M3.74 181.03 L4.1 181.03 L38.42 181.03" class="st19"/>
		</g>
		<g id="shape559-208" v:mID="559" v:groupContext="shape" transform="translate(143.946,11.8784) rotate(-26.5651)">
			<title>Blad.559</title>
			<desc>1 m</desc>
			<v:textBlock v:margins="rect(4,4,4,4)" v:tabSpace="42.5197"/>
			<v:textRect cx="21.2598" cy="173.947" width="42.52" height="14.1732"/>
			<rect x="0" y="166.86" width="42.5197" height="14.1732" class="st17"/>
			<text x="12.09" y="177.55" class="st21" v:langID="1043"><v:paragraph v:horizAlign="1"/><v:tabList/>1 m</text>		</g>
		<g id="shape561-211" v:mID="561" v:groupContext="shape" transform="translate(361.845,-5.27066) rotate(36.8699)">
			<title>Blad.561</title>
			<path d="M0 181.03 L4.25 181.03" class="st18"/>
		</g>
		<g id="shape562-214" v:mID="562" v:groupContext="shape" transform="translate(137.635,-0.798486) rotate(-26.5651)">
			<title>Blad.562</title>
			<path d="M3.74 181.03 L4.1 181.03 L38.42 181.03" class="st19"/>
		</g>
		<g id="shape563-221" v:mID="563" v:groupContext="shape" transform="translate(403.278,-21.7349) rotate(36.8699)">
			<title>Blad.563</title>
			<path d="M0 181.03 L4.25 181.03" class="st18"/>
		</g>
		<g id="shape564-224" v:mID="564" v:groupContext="shape" transform="translate(399.876,-24.2861) rotate(36.8699)">
			<title>Blad.564</title>
			<path d="M0 181.03 L4.25 181.03" class="st18"/>
		</g>
		<g id="shape565-227" v:mID="565" v:groupContext="shape" transform="translate(327.216,16.2959) rotate(36.8699)">
			<title>Blad.565</title>
			<path d="M0 181.03 L4.25 181.03" class="st18"/>
		</g>
		<g id="shape566-230" v:mID="566" v:groupContext="shape" transform="translate(323.815,13.7447) rotate(36.8699)">
			<title>Blad.566</title>
			<path d="M0 181.03 L4.25 181.03" class="st18"/>
		</g>
		<g id="shape567-233" v:mID="567" v:groupContext="shape" transform="translate(182.497,-7.05799) rotate(-26.5651)">
			<title>Blad.567</title>
			<desc>1 m</desc>
			<v:textBlock v:margins="rect(4,4,4,4)" v:tabSpace="42.5197"/>
			<v:textRect cx="21.2598" cy="173.947" width="42.52" height="14.1732"/>
			<rect x="0" y="166.86" width="42.5197" height="14.1732" class="st17"/>
			<text x="12.09" y="177.55" class="st21" v:langID="1043"><v:paragraph v:horizAlign="1"/><v:tabList/>1 m</text>		</g>
		<g id="shape571-236" v:mID="571" v:groupContext="shape" transform="translate(64.2506,7.54748) rotate(-26.5651)">
			<title>Blad.571</title>
			<path d="M0 181.03 L4.25 181.03" class="st18"/>
		</g>
		<g id="shape572-239" v:mID="572" v:groupContext="shape" transform="translate(219.816,-0.869915) rotate(36.8699)">
			<title>Blad.572</title>
			<path d="M3.74 181.03 L4.1 181.03 L38.42 181.03" class="st19"/>
		</g>
		<g id="shape573-246" v:mID="573" v:groupContext="shape" transform="translate(211.326,10.3199) rotate(36.8699)">
			<title>Blad.573</title>
			<desc>1 m</desc>
			<v:textBlock v:margins="rect(4,4,4,4)" v:tabSpace="42.5197"/>
			<v:textRect cx="21.2598" cy="173.947" width="42.52" height="14.1732"/>
			<rect x="0" y="166.86" width="42.5197" height="14.1732" class="st17"/>
			<text x="12.09" y="177.55" class="st21" v:langID="1043"><v:paragraph v:horizAlign="1"/><v:tabList/>1 m</text>		</g>
		<g id="shape577-249" v:mID="577" v:groupContext="shape" transform="translate(60.4475,9.44902) rotate(-26.5651)">
			<title>Blad.577</title>
			<path d="M0 181.03 L4.25 181.03" class="st18"/>
		</g>
		<g id="shape578-252" v:mID="578" v:groupContext="shape" transform="translate(30.2349,-17.9643) rotate(-26.5651)">
			<title>Blad.578</title>
			<path d="M0 181.03 L4.25 181.03" class="st18"/>
		</g>
		<g id="shape579-255" v:mID="579" v:groupContext="shape" transform="translate(26.4318,-16.0628) rotate(-26.5651)">
			<title>Blad.579</title>
			<path d="M0 181.03 L4.25 181.03" class="st18"/>
		</g>
		<g id="shape580-258" v:mID="580" v:groupContext="shape" transform="translate(151.784,-51.8935) rotate(36.8699)">
			<title>Blad.580</title>
			<path d="M3.74 181.03 L4.1 181.03 L80.94 181.03" class="st19"/>
		</g>
		<g id="shape581-265" v:mID="581" v:groupContext="shape" transform="translate(117.768,-77.4054) rotate(36.8699)">
			<title>Blad.581</title>
			<path d="M3.74 181.03 L4.1 181.03 L38.42 181.03" class="st19"/>
		</g>
		<g id="shape582-272" v:mID="582" v:groupContext="shape" transform="translate(-37.7966,-68.988) rotate(-26.5651)">
			<title>Blad.582</title>
			<path d="M0 181.03 L4.25 181.03" class="st18"/>
		</g>
		<g id="shape583-275" v:mID="583" v:groupContext="shape" transform="translate(-41.5997,-67.0864) rotate(-26.5651)">
			<title>Blad.583</title>
			<path d="M0 181.03 L4.25 181.03" class="st18"/>
		</g>
		<g id="shape584-278" v:mID="584" v:groupContext="shape" transform="translate(-71.8124,-94.4998) rotate(-26.5651)">
			<title>Blad.584</title>
			<path d="M0 181.03 L4.25 181.03" class="st18"/>
		</g>
		<g id="shape585-281" v:mID="585" v:groupContext="shape" transform="translate(-75.6154,-92.5982) rotate(-26.5651)">
			<title>Blad.585</title>
			<path d="M0 181.03 L4.25 181.03" class="st18"/>
		</g>
		<g id="shape586-284" v:mID="586" v:groupContext="shape" transform="translate(143.578,-40.7037) rotate(36.8699)">
			<title>Blad.586</title>
			<desc>2 m</desc>
			<v:textBlock v:margins="rect(4,4,4,4)" v:tabSpace="42.5197"/>
			<v:textRect cx="42.5197" cy="173.947" width="85.04" height="14.1732"/>
			<rect x="0" y="166.86" width="85.0394" height="14.1732" class="st17"/>
			<text x="33.35" y="177.55" class="st21" v:langID="1043"><v:paragraph v:horizAlign="1"/><v:tabList/>2 m</text>		</g>
		<g id="shape587-287" v:mID="587" v:groupContext="shape" transform="translate(108.995,-66.499) rotate(36.8699)">
			<title>Blad.587</title>
			<desc>1 m</desc>
			<v:textBlock v:margins="rect(4,4,4,4)" v:tabSpace="42.5197"/>
			<v:textRect cx="21.2598" cy="173.947" width="42.52" height="14.1732"/>
			<rect x="0" y="166.86" width="42.5197" height="14.1732" class="st17"/>
			<text x="12.09" y="177.55" class="st21" v:langID="1043"><v:paragraph v:horizAlign="1"/><v:tabList/>1 m</text>		</g>
		<g id="shape588-290" v:mID="588" v:groupContext="shape" transform="translate(109.225,-150.895)">
			<title>Punt A</title>
			<desc>A</desc>
			<v:textBlock v:margins="rect(4,4,4,4)" v:tabSpace="42.5197"/>
			<v:textRect cx="7.08661" cy="173.947" width="14.18" height="14.1732"/>
			<rect x="0" y="166.86" width="14.1732" height="14.1732" class="st6"/>
			<text x="4" y="177.55" class="st21" v:langID="1043"><v:paragraph v:horizAlign="1"/><v:tabList/>A</text>		</g>
		<g id="shape589-293" v:mID="589" v:groupContext="shape" transform="translate(131.903,-126.8)">
			<title>Punt A.589</title>
			<desc>B</desc>
			<v:textBlock v:margins="rect(4,4,4,4)" v:tabSpace="42.5197"/>
			<v:textRect cx="7.08661" cy="173.947" width="14.18" height="14.1732"/>
			<rect x="0" y="166.86" width="14.1732" height="14.1732" class="st6"/>
			<text x="4" y="177.55" class="st21" v:langID="1043"><v:paragraph v:horizAlign="1"/><v:tabList/>B</text>		</g>
		<g id="shape590-296" v:mID="590" v:groupContext="shape" transform="translate(79.4616,-111.21)">
			<title>Punt A.590</title>
			<desc>C</desc>
			<v:textBlock v:margins="rect(4,4,4,4)" v:tabSpace="42.5197"/>
			<v:textRect cx="7.08661" cy="173.947" width="14.18" height="14.1732"/>
			<rect x="0" y="166.86" width="14.1732" height="14.1732" class="st6"/>
			<text x="4" y="177.55" class="st21" v:langID="1043"><v:paragraph v:horizAlign="1"/><v:tabList/>C</text>		</g>
		<g id="shape591-299" v:mID="591" v:groupContext="shape" transform="translate(160.249,-65.8553)">
			<title>Punt A.591</title>
			<desc>D</desc>
			<v:textBlock v:margins="rect(4,4,4,4)" v:tabSpace="42.5197"/>
			<v:textRect cx="7.08661" cy="173.947" width="14.18" height="14.1732"/>
			<rect x="0" y="166.86" width="14.1732" height="14.1732" class="st6"/>
			<text x="4" y="177.55" class="st21" v:langID="1043"><v:paragraph v:horizAlign="1"/><v:tabList/>D</text>		</g>
		<g id="shape592-302" v:mID="592" v:groupContext="shape" transform="translate(192.847,-81.4459)">
			<title>Punt A.592</title>
			<desc>E</desc>
			<v:textBlock v:margins="rect(4,4,4,4)" v:tabSpace="42.5197"/>
			<v:textRect cx="7.08661" cy="173.947" width="14.18" height="14.1732"/>
			<rect x="0" y="166.86" width="14.1732" height="14.1732" class="st6"/>
			<text x="4" y="177.55" class="st21" v:langID="1043"><v:paragraph v:horizAlign="1"/><v:tabList/>E</text>		</g>
		<g id="shape593-305" v:mID="593" v:groupContext="shape" transform="translate(226.863,-41.7608)">
			<title>Punt A.593</title>
			<desc>G</desc>
			<v:textBlock v:margins="rect(4,4,4,4)" v:tabSpace="42.5197"/>
			<v:textRect cx="7.08661" cy="173.947" width="14.18" height="14.1732"/>
			<rect x="0" y="166.86" width="14.1732" height="14.1732" class="st6"/>
			<text x="4" y="177.55" class="st21" v:langID="1043"><v:paragraph v:horizAlign="1"/><v:tabList/>G</text>		</g>
		<g id="shape594-308" v:mID="594" v:groupContext="shape" transform="translate(270.8,-60.186)">
			<title>Punt A.594</title>
			<desc>H</desc>
			<v:textBlock v:margins="rect(4,4,4,4)" v:tabSpace="42.5197"/>
			<v:textRect cx="7.08661" cy="173.947" width="14.18" height="14.1732"/>
			<rect x="0" y="166.86" width="14.1732" height="14.1732" class="st6"/>
			<text x="4" y="177.55" class="st21" v:langID="1043"><v:paragraph v:horizAlign="1"/><v:tabList/>H</text>		</g>
	</g>
</svg>
